<svg width="435" height="435" viewBox="0 0 435 435" fill="none" xmlns="http://www.w3.org/2000/svg">
<path d="M238.617 127.665C281.914 186.237 317.665 255.772 375.535 272.685" stroke="black" stroke-width="0.71" stroke-miterlimit="10"/>
<path d="M266.869 137.226C266.869 137.226 249.89 142.696 238.617 127.643C249.89 142.696 238.264 155.649 238.264 155.649" stroke="black" stroke-width="0.71" stroke-miterlimit="10"/>
<path d="M48.168 141.427C105.072 162.979 141.2 224.637 179.025 278.418" stroke="black" stroke-width="0.71" stroke-miterlimit="10"/>
<path d="M151.152 267.937C151.152 267.937 168.344 263.014 179.027 278.44C168.344 263.036 180.465 250.477 180.465 250.477" stroke="black" stroke-width="0.71" stroke-miterlimit="10"/>
<path d="M169.475 97.6235C243.711 162.126 281.985 292.771 373.696 297.978" stroke="black" stroke-width="0.71" stroke-miterlimit="10"/>
<path d="M41.9414 88.5651C133.204 81.2134 179.19 163.679 227.934 233.017" stroke="black" stroke-width="0.71" stroke-miterlimit="10"/>
<path d="M148.982 180.199C218.149 265.312 262.413 391.581 388.13 331.017" stroke="black" stroke-width="0.71" stroke-miterlimit="10"/>
<path d="M80.7371 188.74L81.138 194.363L85.9016 197.864L79.841 198.214L76.0678 202.634L75.6669 197.011L70.9033 193.51L76.9639 193.138L80.7371 188.74Z" fill="#15BB66"/>
<path d="M386.622 243.059L387.093 250.126L393.06 254.502L385.466 254.962L380.726 260.497L380.254 253.452L374.288 249.054L381.882 248.594L386.622 243.059Z" fill="black"/>
<path d="M101.285 207.983V290.4" stroke="black" stroke-width="0.7087" stroke-miterlimit="2.6131" stroke-linecap="round" stroke-linejoin="round" stroke-dasharray="2.83 2.83"/>
<path d="M93.4697 220.512V277.871" stroke="black" stroke-width="0.7087" stroke-miterlimit="2.6131" stroke-linecap="round" stroke-linejoin="round" stroke-dasharray="2.83 2.83"/>
<path d="M93.8411 133.001L89.1094 134.575C88.6587 134.8 88.4334 135.025 88.4334 135.475L86.8561 140.198L85.2789 135.475C85.0535 135.025 84.8282 134.8 84.6029 134.575L79.8711 133.001L84.6029 131.426C85.0535 131.202 85.2789 130.977 85.2789 130.527L86.8561 125.804L88.4334 130.527C88.6587 130.977 88.884 131.202 89.1094 131.426L93.8411 133.001Z" fill="#15BB66"/>
<path d="M80.3718 125.307L75.6659 126.67C75.3623 126.822 75.0587 127.125 74.9069 127.428L73.5406 132.125L72.0226 127.58C71.8708 127.277 71.5672 126.973 71.2636 126.822L66.5576 125.458L71.2636 124.094C71.5672 123.943 71.8708 123.64 72.0226 123.337L73.3888 118.64L74.7551 123.337C74.9069 123.64 75.2105 123.943 75.5141 124.094L80.3718 125.307Z" stroke="black" stroke-width="0.7087" stroke-miterlimit="10"/>
<path d="M342.504 142.687L349.477 153.265L362.016 155.179L351.455 162.163L349.544 174.722L342.537 164.144L330.032 162.23L340.593 155.212L342.504 142.687Z" stroke="black" stroke-width="0.5"/>
<path d="M366.203 160.926L368.504 166.893L374.462 169.197L368.504 171.461L366.203 177.428L363.902 171.461L357.985 169.197L363.902 166.893L366.203 160.926Z" fill="#15BB66"/>
<path d="M333.162 297.183C332.144 297.183 331.122 297.547 330.345 298.421C328.792 300.169 328.835 302.864 330.345 304.612L336.476 311.749L342.607 304.612C344.117 302.864 344.16 300.169 342.607 298.421C341.054 296.746 338.526 296.746 336.973 298.421L336.476 299.004L335.979 298.421C335.202 297.547 334.18 297.183 333.162 297.183Z" stroke="black" stroke-width="0.71"/>
<path d="M333.162 303.258C332.144 303.258 331.122 303.592 330.345 304.393C328.792 305.995 328.835 308.465 330.345 310.068L336.476 316.61L342.607 310.068C344.117 308.465 344.16 305.995 342.607 304.393C341.054 302.858 338.526 302.858 336.973 304.393L336.476 304.927L335.979 304.393C335.202 303.592 334.18 303.258 333.162 303.258Z" fill="#15BB66"/>
<path d="M316.043 299.101H118.899C114.151 299.101 110.303 295.252 110.303 290.504V162.173C110.303 157.425 114.151 153.576 118.899 153.576H316.043C320.791 153.576 324.639 157.425 324.639 162.173V290.505C324.64 295.252 320.791 299.101 316.043 299.101Z" fill="white" stroke="black" stroke-width="0.71"/>
<path d="M110.303 284.685V294.514C110.303 297.047 114.151 299.101 118.899 299.101H316.043C320.791 299.101 324.639 297.047 324.639 294.514V284.685H110.303Z" fill="#15BB66" stroke="black" stroke-width="0.71"/>
<path d="M228.335 299.101H206.609V325.425H228.335V299.101Z" fill="white" stroke="black" stroke-width="0.71"/>
<path d="M262.826 268.415H172.116C165.252 268.415 159.687 262.85 159.687 255.985V197.624C159.687 190.759 165.252 185.194 172.116 185.194H262.826C269.691 185.194 275.256 190.759 275.256 197.624V255.985C275.256 262.85 269.691 268.415 262.826 268.415Z" fill="#15BB66" stroke="black" stroke-width="0.71"/>
<path d="M199.1 226.805V204.011L223.162 215.408L247.224 226.805L223.162 238.201L199.1 249.598V226.805Z" fill="white" stroke="black" stroke-width="0.71"/>
<path d="M257.58 335.165H177.361V327.883C177.361 325.681 180.982 323.896 185.448 323.896H249.494C253.961 323.896 257.58 325.681 257.58 327.883V335.165Z" fill="#15BB66" stroke="black" stroke-width="0.71"/>
<path d="M272.604 225.007C271.894 223.065 273.779 221.166 275.737 221.876L291.006 227.486L306.175 233.067C308.132 233.792 308.335 236.488 306.508 237.489L294.69 243.954L288.222 255.768C287.222 257.609 284.524 257.406 283.799 255.435L278.216 240.272L272.604 225.007Z" fill="#15BB66" stroke="#3C39C6" stroke-width="0.71" stroke-miterlimit="10"/>
<path d="M274.693 204.741L277.158 214.628L284.249 207.307L281.45 217.092L291.239 214.294L283.916 221.383L293.805 223.848L283.916 226.326L291.239 233.401L281.45 230.603L284.249 240.402L277.158 233.082L274.693 242.954L272.213 233.082L265.136 240.402L267.935 230.603L258.132 233.401L265.455 226.326L255.58 223.848L265.455 221.383L258.132 214.294L267.935 217.092L265.136 207.307L272.213 214.628L274.693 204.741Z" fill="white" stroke="black" stroke-width="0.71" stroke-miterlimit="10"/>
<path fill-rule="evenodd" clip-rule="evenodd" d="M286.254 225.74L283.916 226.326L291.239 233.401L281.45 230.603L284.249 240.402L277.158 233.082L276.517 235.649L272.604 225.007C271.894 223.065 273.779 221.166 275.737 221.876L286.254 225.74Z" fill="#15BB66"/>
<path d="M286.254 225.74L286.341 226.085L287.458 225.804L286.377 225.407L286.254 225.74ZM283.916 226.326L283.829 225.982L283.209 226.138L283.669 226.582L283.916 226.326ZM291.239 233.401L291.141 233.742L292.507 234.132L291.485 233.145L291.239 233.401ZM281.45 230.603L281.548 230.261L280.934 230.086L281.109 230.7L281.45 230.603ZM284.249 240.402L283.994 240.649L284.979 241.666L284.59 240.305L284.249 240.402ZM277.158 233.082L277.413 232.835L276.968 232.376L276.814 232.996L277.158 233.082ZM276.517 235.649L276.184 235.772L276.582 236.855L276.861 235.735L276.517 235.649ZM272.604 225.007L272.271 225.129V225.13L272.604 225.007ZM275.737 221.876L275.859 221.543L275.858 221.542L275.737 221.876ZM286.168 225.396L283.829 225.982L284.002 226.671L286.341 226.085L286.168 225.396ZM283.669 226.582L290.992 233.656L291.485 233.145L284.162 226.071L283.669 226.582ZM291.336 233.059L281.548 230.261L281.353 230.944L291.141 233.742L291.336 233.059ZM281.109 230.7L283.908 240.5L284.59 240.305L281.792 230.505L281.109 230.7ZM284.504 240.155L277.413 232.835L276.903 233.329L283.994 240.649L284.504 240.155ZM276.814 232.996L276.172 235.563L276.861 235.735L277.502 233.168L276.814 232.996ZM276.85 235.527L272.937 224.885L272.271 225.13L276.184 235.772L276.85 235.527ZM272.937 224.885C272.33 223.226 273.941 221.602 275.615 222.21L275.858 221.542C273.616 220.729 271.457 222.903 272.271 225.129L272.937 224.885ZM275.614 222.209L286.132 226.073L286.377 225.407L275.859 221.543L275.614 222.209Z" fill="white"/>
</svg>
