<svg id="ELEMENTS" xmlns="http://www.w3.org/2000/svg" width="40" height="40" viewBox="0 0 40 40">
  <g id="Group_138" data-name="Group 138">
    <path id="Path_1311" data-name="Path 1311" d="M24.968,16.42l-3.14,11.733-2.482.978-.9,3.341,2.526-.853L19.3,38.544l18.088.038,1.1-4.438H27.494L28.917,28.8l2.977-1.26.853-3.259-2.89.978,2.281-8.718Z" transform="translate(-8.428 -7.501)" fill="#b8b9bb" fill-rule="evenodd"/>
    <path id="Path_1312" data-name="Path 1312" d="M20,0A20,20,0,1,1,0,20,20.011,20.011,0,0,1,20,0Z" fill="#b8b9bb" fill-rule="evenodd"/>
    <path id="Path_1313" data-name="Path 1313" d="M24.968,16.42l-3.14,11.733-2.482.978-.9,3.341,2.526-.853L19.3,38.544l18.088.038,1.1-4.438H27.494L28.917,28.8l2.977-1.26.853-3.259-2.89.978,2.281-8.718Z" transform="translate(-8.428 -7.501)" fill="#fff" fill-rule="evenodd"/>
  </g>
</svg>
