<svg xmlns="http://www.w3.org/2000/svg" width="39.995" height="40" viewBox="0 0 39.995 40">
  <g id="Layer_x0020_1" transform="translate(0 -0.001)">
    <g id="_1421344023328" transform="translate(0 0.001)">
      <path id="Path_1323" data-name="Path 1323" d="M39.4,24.839A19.993,19.993,0,1,1,24.833.6,19.995,19.995,0,0,1,39.4,24.839h0Z" transform="translate(0 -0.001)" fill="#f7931a"/>
      <path id="Path_1324" data-name="Path 1324" d="M1014.555,722.933c.4-2.662-1.628-4.092-4.4-5.047l.9-3.605-2.195-.547-.875,3.51c-.577-.144-1.169-.279-1.758-.414l.881-3.534-2.193-.547-.9,3.6c-.477-.109-.946-.216-1.4-.329l0-.011-3.026-.756-.584,2.344s1.628.373,1.594.4a1.168,1.168,0,0,1,1.023,1.276l-1.024,4.107a1.79,1.79,0,0,1,.228.073l-.232-.057-1.435,5.754a.8.8,0,0,1-1.006.521c.022.032-1.6-.4-1.6-.4l-1.09,2.512,2.856.712c.531.133,1.052.273,1.565.4l-.908,3.647,2.192.547.9-3.608c.6.163,1.18.313,1.749.454l-.9,3.591,2.195.547.908-3.64c3.742.708,6.556.423,7.741-2.962.954-2.725-.047-4.3-2.016-5.322a3.5,3.5,0,0,0,2.8-3.222h0Zm-5.014,7.031c-.678,2.725-5.267,1.252-6.755.883l1.205-4.831c1.488.371,6.258,1.106,5.549,3.949Zm.679-7.071c-.619,2.479-4.438,1.22-5.677.911l1.093-4.382c1.239.309,5.229.885,4.584,3.471Z" transform="translate(-985.738 -705.782)" fill="#fff"/>
    </g>
  </g>
</svg>
