<svg id="decentraland-mana-logo" xmlns="http://www.w3.org/2000/svg" xmlns:xlink="http://www.w3.org/1999/xlink" width="40" height="40" viewBox="0 0 40 40">
  <defs>
    <linearGradient id="linear-gradient" x1="0.854" y1="0.146" x2="0.146" y2="0.854" gradientUnits="objectBoundingBox">
      <stop offset="0" stop-color="#ff2d55"/>
      <stop offset="1" stop-color="#ffbc5b"/>
    </linearGradient>
    <linearGradient id="linear-gradient-2" x1="0.5" x2="0.5" y2="1" gradientUnits="objectBoundingBox">
      <stop offset="0" stop-color="#a524b3"/>
      <stop offset="1" stop-color="#ff2d55"/>
    </linearGradient>
  </defs>
  <circle id="Ellipse_20" data-name="Ellipse 20" cx="20" cy="20" r="20" fill="url(#linear-gradient)"/>
  <path id="Path_1314" data-name="Path 1314" d="M125.7,0V15h12.5Z" transform="translate(-111.53 13)" fill-rule="evenodd" fill="url(#linear-gradient-2)"/>
  <path id="Path_1315" data-name="Path 1315" d="M16.7,145H29.2V130Z" transform="translate(-15.03 -117)" fill="#fff" fill-rule="evenodd"/>
  <path id="Path_1316" data-name="Path 1316" d="M40,320a20.483,20.483,0,0,0,4,4H68a20.483,20.483,0,0,0,4-4Z" transform="translate(-36 -288)" fill="#fc9965" fill-rule="evenodd"/>
  <path id="Path_1317" data-name="Path 1317" d="M80,360a20,20,0,0,0,24,0Z" transform="translate(-72 -324)" fill="#ff2d55" fill-rule="evenodd"/>
  <path id="Path_1318" data-name="Path 1318" d="M252.3,0V11h9.17Z" transform="translate(-225.47 21)" fill-rule="evenodd" fill="url(#linear-gradient-2)"/>
  <path id="Path_1319" data-name="Path 1319" d="M41.86,280H16.7a19.915,19.915,0,0,0,2.33,4H41.87v-4Z" transform="translate(-15.03 -252)" fill="#ffbc5b" fill-rule="evenodd"/>
  <path id="Path_1320" data-name="Path 1320" d="M176.7,221h9.16V210Z" transform="translate(-159.03 -189)" fill="#fff" fill-rule="evenodd"/>
  <circle id="Ellipse_21" data-name="Ellipse 21" cx="5" cy="5" r="5" transform="translate(21.83 8)" fill="#ffc95b"/>
  <circle id="Ellipse_22" data-name="Ellipse 22" cx="2.5" cy="2.5" r="2.5" transform="translate(11.67 5)" fill="#ffc95b"/>
</svg>
