<svg id="ELEMENTS" xmlns="http://www.w3.org/2000/svg" width="40" height="40" viewBox="0 0 40 40">
  <g id="Group_127" data-name="Group 127">
    <path id="Path_1288" data-name="Path 1288" d="M20,0A20,20,0,1,1,0,20,20,20,0,0,1,20,0" fill="#53ae94"/>
    <path id="Path_1289" data-name="Path 1289" d="M29.082,25.592V22.616h6.806V18.08H17.354v4.536H24.16v2.971c-5.53.255-9.69,1.347-9.69,2.662s4.161,2.406,9.69,2.662v9.533h4.921V30.91c5.519-.255,9.669-1.347,9.669-2.662s-4.15-2.406-9.669-2.662m0,4.514h0c-.141.005-.853.049-2.439.049-1.271,0-2.162-.038-2.477-.054h0c-4.883-.212-8.533-1.065-8.533-2.08s3.645-1.869,8.533-2.086v3.324c.32.022,1.233.076,2.5.076,1.515,0,2.281-.065,2.423-.076V25.929c4.878.217,8.517,1.07,8.517,2.086s-3.639,1.869-8.517,2.086" transform="translate(-6.61 -8.259)" fill="#fff"/>
  </g>
</svg>
