<svg xmlns="http://www.w3.org/2000/svg" xmlns:xlink="http://www.w3.org/1999/xlink" width="203.318" height="34.077" viewBox="0 0 203.318 34.077">
  <defs>
    <clipPath id="clip-path">
      <rect id="Rectangle_75" data-name="Rectangle 75" width="34.092" height="34.077" fill="none"/>
    </clipPath>
  </defs>
  <g id="Group_28" data-name="Group 28" transform="translate(0 0)">
    <g id="Group_46" data-name="Group 46" transform="translate(0 0)">
      <g id="Group_48" data-name="Group 48" transform="translate(0 0)">
        <g id="Group_47" data-name="Group 47" transform="translate(0 0)" clip-path="url(#clip-path)">
          <path id="Path_1232" data-name="Path 1232" d="M0,28.477V5.6A5.6,5.6,0,0,1,5.6,0H28.492a5.6,5.6,0,0,1,5.6,5.6V28.477a5.6,5.6,0,0,1-5.6,5.6H5.6a5.6,5.6,0,0,1-5.6-5.6" transform="translate(0 0)" fill="#15bb66"/>
          <path id="Path_1233" data-name="Path 1233" d="M33.09,14.035,27.322,8.263H16.22A3.134,3.134,0,0,0,19.353,11.4h6.669l4,4-3.187,3.187L23.743,15.49H11.486V11.4h4.1a4.864,4.864,0,0,1-1.136-3.134h-6.1V18.627h14.1L24.617,20.8,22.7,22.72H8.348V33.085h6.1a4.854,4.854,0,0,1,1.136-3.133h-4.1V25.859H24l2.837-2.838,3.187,3.187-3.744,3.744H19.353a3.133,3.133,0,0,0-3.133,3.133H27.578l5.512-5.511V24.842L29.051,20.8l4.039-4.039Z" transform="translate(-3.673 -3.635)" fill="#fff"/>
        </g>
      </g>
      <path id="Path_1160" data-name="Path 1160" d="M80,29.587h4.354c1.409,0,3.126.083,3.126-2.291s-1.717-2.3-3.126-2.3H78.607l1.36-2.7h4.569c1.157-.012,2.386-.143,2.386-2.04,0-2.123-1.528-2.052-2.78-2.052H77.557V32.235H74.671V15.511H85.322a4.139,4.139,0,0,1,4.5,4.414v.513a4.63,4.63,0,0,1-.942,2.935,4.614,4.614,0,0,1,1.5,3.614v.56c0,2.577-1.563,4.688-4.832,4.688H78.678Z" transform="translate(-31.979 -6.643)" fill="#15bb66"/>
      <path id="Path_1161" data-name="Path 1161" d="M107.678,13.63l2.887-.895v18.31h-2.887Z" transform="translate(-46.115 -5.454)" fill="#15bb66"/>
      <path id="Path_1162" data-name="Path 1162" d="M123.114,35.514a4.49,4.49,0,0,1-4.866-4.784V27.951a4.489,4.489,0,0,1,4.866-4.783H128.2a4.49,4.49,0,0,1,4.867,4.783V30.73a4.484,4.484,0,0,1-4.867,4.784Zm1.229-9.638c-1.444,0-3.2.226-3.2,2.564v1.8c0,2.338,1.753,2.565,3.2,2.565h2.636c1.443,0,3.2-.226,3.2-2.565v-1.8c0-2.326-1.754-2.564-3.2-2.564Z" transform="translate(-50.641 -9.922)" fill="#15bb66"/>
      <path id="Path_1163" data-name="Path 1163" d="M155.134,32.807h5.344l1.36,2.708h-7.932a4.49,4.49,0,0,1-4.867-4.783v-2.78a4.49,4.49,0,0,1,4.867-4.783h7.932l-1.36,2.708h-5.344c-1.443,0-3.2.226-3.2,2.565v1.8c0,2.337,1.753,2.564,3.2,2.564" transform="translate(-63.828 -9.923)" fill="#15bb66"/>
      <path id="Path_1164" data-name="Path 1164" d="M178.761,12.736v18.31h-2.9V13.631Zm1.349,10.808,4.4-4.843h3.829l-5.548,6.179,5.548,6.167h-3.829l-4.4-4.843a1.915,1.915,0,0,1-.512-1.324,1.946,1.946,0,0,1,.512-1.336" transform="translate(-75.316 -5.454)" fill="#15bb66"/>
      <path id="Path_1165" data-name="Path 1165" d="M204.657,30.469l-5.189-14.958h3.173l3.769,11.105,2.839-9.2c.334-1.062.693-1.908,1.444-1.908s1.11.847,1.443,1.908l2.84,9.2,3.769-11.1h3.173l-5.176,14.958c-.358.883-.668,1.766-1.623,1.766s-1.264-.883-1.622-1.766l-2.8-8.91-2.8,8.91c-.346.883-.668,1.766-1.622,1.766s-1.265-.883-1.611-1.766" transform="translate(-85.425 -6.643)" fill="#2b2b2b"/>
      <path id="Path_1166" data-name="Path 1166" d="M243.945,35.514a4.49,4.49,0,0,1-4.866-4.784V27.951a4.489,4.489,0,0,1,4.866-4.783h5.082a4.49,4.49,0,0,1,4.867,4.783V30.73a4.484,4.484,0,0,1-4.867,4.784Zm1.229-9.638c-1.444,0-3.2.226-3.2,2.564v1.8c0,2.338,1.753,2.565,3.2,2.565h2.636c1.443,0,3.2-.226,3.2-2.565v-1.8c0-2.326-1.754-2.564-3.2-2.564Z" transform="translate(-102.389 -9.922)" fill="#2b2b2b"/>
      <path id="Path_1167" data-name="Path 1167" d="M274.736,35.514a4.49,4.49,0,0,1-4.867-4.784V27.951a4.49,4.49,0,0,1,4.867-4.783h5.081a4.49,4.49,0,0,1,4.868,4.783V30.73a4.485,4.485,0,0,1-4.868,4.784Zm1.228-9.638c-1.443,0-3.2.226-3.2,2.564v1.8c0,2.338,1.753,2.565,3.2,2.565H278.6c1.444,0,3.2-.226,3.2-2.565v-1.8c0-2.326-1.753-2.564-3.2-2.564Z" transform="translate(-115.575 -9.922)" fill="#2b2b2b"/>
      <path id="Path_1168" data-name="Path 1168" d="M312.579,13.63l2.9-.895V26.262a4.485,4.485,0,0,1-4.868,4.784h-5.081a4.491,4.491,0,0,1-4.868-4.784v-2.78a4.491,4.491,0,0,1,4.868-4.783h7.05Zm-9.018,12.144c0,2.338,1.753,2.564,3.183,2.565h2.636c1.444,0,3.2-.226,3.2-2.564V21.408h-5.832c-1.432,0-3.185.226-3.185,2.565Z" transform="translate(-128.763 -5.454)" fill="#2b2b2b"/>
      <path id="Path_1169" data-name="Path 1169" d="M344.642,23.23l-1.349,2.7h-8.23a1.073,1.073,0,0,0,0,2.123h6.847a3.549,3.549,0,0,1,3.268,3.757,3.556,3.556,0,0,1-3.268,3.757H331.855l1.359-2.7h8.147a1.073,1.073,0,0,0,0-2.123h-6.847a3.557,3.557,0,0,1-3.269-3.757,3.55,3.55,0,0,1,3.269-3.757Z" transform="translate(-141.861 -9.949)" fill="#2b2b2b"/>
    </g>
  </g>
</svg>
