<svg xmlns="http://www.w3.org/2000/svg" width="20" height="20" viewBox="0 0 20 20">
  <g id="Group_193" data-name="Group 193" transform="translate(-426 -6054)">
    <path id="Path_1391" data-name="Path 1391" d="M18.433,16.517a3.438,3.438,0,0,1-.567.85,3.757,3.757,0,0,1-1.367.983,4.185,4.185,0,0,1-1.625.317,6.945,6.945,0,0,1-2.717-.608,14.637,14.637,0,0,1-2.867-1.65,23.959,23.959,0,0,1-2.733-2.333A23.678,23.678,0,0,1,4.233,11.35,14.857,14.857,0,0,1,2.6,8.508,7.019,7.019,0,0,1,2,5.783a4.311,4.311,0,0,1,.3-1.608,3.836,3.836,0,0,1,.958-1.392A2.442,2.442,0,0,1,4.992,2a1.566,1.566,0,0,1,.675.15,1.358,1.358,0,0,1,.558.467L8.158,5.342a2.852,2.852,0,0,1,.333.583,1.317,1.317,0,0,1,.117.508,1.131,1.131,0,0,1-.175.592,2.834,2.834,0,0,1-.467.592l-.633.658a.446.446,0,0,0-.133.333.757.757,0,0,0,.025.192c.025.067.05.117.067.167a6.915,6.915,0,0,0,.775,1.067c.375.433.775.875,1.208,1.317.45.442.883.85,1.325,1.225a6.4,6.4,0,0,0,1.075.767c.042.017.092.042.15.067a.575.575,0,0,0,.208.033.458.458,0,0,0,.342-.142l.633-.625a2.557,2.557,0,0,1,.6-.467,1.11,1.11,0,0,1,.592-.175,1.33,1.33,0,0,1,.508.108,3.223,3.223,0,0,1,.583.325l2.758,1.958a1.264,1.264,0,0,1,.458.533,1.71,1.71,0,0,1,.133.65A2.121,2.121,0,0,1,18.433,16.517Z" transform="translate(425.679 6053.667)" fill="none" stroke="#fff" stroke-width="1.5"/>
    <rect id="Rectangle_223" data-name="Rectangle 223" width="20" height="20" transform="translate(426 6054)" fill="none"/>
  </g>
</svg>
