<svg xmlns="http://www.w3.org/2000/svg" width="18" height="13" viewBox="0 0 18 13">
  <path id="Path_1407" data-name="Path 1407" d="M18.317,7.089A15.431,15.431,0,0,0,14.6,6a9.882,9.882,0,0,0-.476.921,14.605,14.605,0,0,0-4.116,0A9.571,9.571,0,0,0,9.53,6,15.38,15.38,0,0,0,5.814,7.091a13.789,13.789,0,0,0-2.669,9.73A15.274,15.274,0,0,0,7.7,19a10.461,10.461,0,0,0,.975-1.5,9.9,9.9,0,0,1-1.536-.7q.193-.133.377-.278a11.178,11.178,0,0,0,9.106,0q.185.143.377.278a9.875,9.875,0,0,1-1.539.7,10.417,10.417,0,0,0,.976,1.5,15.243,15.243,0,0,0,4.557-2.179,13.788,13.788,0,0,0-2.676-9.732ZM9.079,14.862a1.721,1.721,0,0,1,0-3.436,1.721,1.721,0,0,1,0,3.436Zm5.98,0a1.721,1.721,0,0,1,0-3.436,1.721,1.721,0,0,1,0,3.436Z" transform="translate(-3.069 -6)" fill="#fff"/>
</svg>
