<svg xmlns="http://www.w3.org/2000/svg" width="20" height="20" viewBox="0 0 20 20">
  <path id="Path_1408" data-name="Path 1408" d="M12.038,2A10.113,10.113,0,0,0,2.069,12.247a10.322,10.322,0,0,0,6.789,9.744.525.525,0,0,0,.673-.5v-1.76c-2.752.629-3.364-1.383-3.364-1.383a2.579,2.579,0,0,0-1.1-1.509c-.917-.629.061-.629.061-.629a2.138,2.138,0,0,1,1.529,1.069,2.085,2.085,0,0,0,2.875.88,2.214,2.214,0,0,1,.612-1.383c-2.2-.251-4.526-1.132-4.526-5.092a3.958,3.958,0,0,1,1.04-2.766,3.819,3.819,0,0,1,.122-2.64s.856-.251,2.752,1.069a8.328,8.328,0,0,1,2.508-.314,10.967,10.967,0,0,1,2.508.314c1.9-1.32,2.752-1.069,2.752-1.069a4.04,4.04,0,0,1,.122,2.7,4.129,4.129,0,0,1,1.04,2.766c0,3.961-2.324,4.778-4.526,5.029a2.437,2.437,0,0,1,.673,1.886v2.829a.525.525,0,0,0,.673.5,10.239,10.239,0,0,0,6.789-9.744A10.2,10.2,0,0,0,12.038,2Z" transform="translate(-2.069 -2)" fill="#fff" fill-rule="evenodd"/>
</svg>
