<svg xmlns="http://www.w3.org/2000/svg" width="18" height="15" viewBox="0 0 18 15">
  <path id="Path_1405" data-name="Path 1405" d="M21.069,6.731a6.526,6.526,0,0,1-2.138.577,3.251,3.251,0,0,0,1.575-2.077,7.271,7.271,0,0,1-2.363.923A3.88,3.88,0,0,0,15.444,5a3.764,3.764,0,0,0-3.6,4.615,10.461,10.461,0,0,1-7.65-3.923,3.9,3.9,0,0,0,1.125,5.077,4.621,4.621,0,0,1-1.688-.462,4.035,4.035,0,0,0,2.925,3.808,4.185,4.185,0,0,1-1.687.115,3.659,3.659,0,0,0,3.488,2.654,7.517,7.517,0,0,1-5.288,1.385A10.779,10.779,0,0,0,8.694,20c6.863,0,10.688-5.885,10.463-11.308A5.267,5.267,0,0,0,21.069,6.731Z" transform="translate(-3.069 -5)" fill="#fff"/>
</svg>
