<svg id="Group_186" data-name="Group 186" xmlns="http://www.w3.org/2000/svg" width="38.994" height="33.642" viewBox="0 0 38.994 33.642">
  <path id="Path_1263" data-name="Path 1263" d="M32.858,1.238l9.3,15.915-9.3,15.915H14.19l9.226-15.915L14.19,1.238Z" transform="translate(-4.062 -0.354)" fill="rgba(21,187,102,0.2)"/>
  <path id="Path_1265" data-name="Path 1265" d="M13.831,33.642A1.032,1.032,0,0,1,13.4,33.5a.91.91,0,0,1-.36-1.213L21.976,16.8,13.038,1.312A.91.91,0,0,1,13.4.1a.929.929,0,0,1,1.225.357L23.85,16.371a.9.9,0,0,1,0,.856L14.624,33.142a.887.887,0,0,1-.793.5" transform="translate(-3.704 0)" fill="#15bb66"/>
  <path id="Path_1266" data-name="Path 1266" d="M28.794,33.653H10.126a.907.907,0,0,1-.793-.428L.108,17.238a.9.9,0,0,1,0-.856L9.334.466a.83.83,0,0,1,.793-.428H28.794a.907.907,0,0,1,.793.428l9.3,15.915a1.049,1.049,0,0,1,0,.928l-9.3,15.844a1.093,1.093,0,0,1-.793.5M10.631,31.869H28.219L37.012,16.81,28.291,1.751H10.631L1.982,16.81Z" transform="translate(0 -0.011)" fill="#15bb66"/>
  <rect id="Rectangle_91" data-name="Rectangle 91" width="38.994" height="33.642" transform="translate(0)" fill="none"/>
</svg>
