<svg xmlns="http://www.w3.org/2000/svg" width="45.559" height="38.094" viewBox="0 0 45.559 38.094">
  <g id="Group_185" data-name="Group 185" transform="translate(-927 -2018.999)">
    <path id="Path_1379" data-name="Path 1379" d="M44.247,15.193,22.816,28.975,1.3,15.193,22.816,1.325Z" transform="translate(926.793 2018.788)" fill="#c9efdc"/>
    <path id="Path_1380" data-name="Path 1380" d="M22.609,29.857a1.558,1.558,0,0,1-.588-.168L.5,15.821A.968.968,0,0,1,0,14.9a1.163,1.163,0,0,1,.5-.924L22.021.188a1.009,1.009,0,0,1,1.176,0L44.713,13.972a.965.965,0,0,1,.5.924,1.163,1.163,0,0,1-.5.925l-21.6,13.867a1.2,1.2,0,0,1-.5.168M3.026,14.981,22.609,27.588,42.191,14.981,22.609,2.374Z" transform="translate(927 2019)" fill="#15bb66"/>
    <path id="Path_1381" data-name="Path 1381" d="M22.608,40.73a1.574,1.574,0,0,1-.588-.168L.5,26.694a.925.925,0,0,1-.5-.84V17.618a1.112,1.112,0,0,1,1.092-1.093,1.112,1.112,0,0,1,1.093,1.093v7.648l20.424,13.2L43.955,24.929a1.038,1.038,0,1,1,1.093,1.765L23.112,40.562a.619.619,0,0,1-.5.168" transform="translate(927 2016.363)" fill="#15bb66"/>
    <path id="Path_1382" data-name="Path 1382" d="M51.215,32h-.252a1.069,1.069,0,0,1-.84-1.261l.588-2.858-2.858-.84a1.04,1.04,0,1,1,.5-2.017l3.782,1.093a1.134,1.134,0,0,1,.756,1.261l-.84,3.782c.084.5-.336.84-.84.84" transform="translate(919.488 2015.01)" fill="#15bb66"/>
  </g>
</svg>
