<svg xmlns="http://www.w3.org/2000/svg" width="37.475" height="39.152" viewBox="0 0 37.475 39.152">
  <g id="Group_182" data-name="Group 182" transform="translate(0 0)">
    <g id="Group_183" data-name="Group 183" transform="translate(0 0)">
      <path id="Path_1356" data-name="Path 1356" d="M30.77,2.051a13.26,13.26,0,0,0-9.395,5.192c-.33.412-8.57,11.125-8.9,11.537l7.5,7.5c.742-.494,11.949-7.664,11.949-7.664a13.277,13.277,0,0,0,6.1-10.054l.659-7.252Z" transform="translate(-2.195 -0.23)" fill="#fff"/>
      <path id="Path_1357" data-name="Path 1357" d="M35.028,8.458a3.962,3.962,0,1,1-5.6,0,3.93,3.93,0,0,1,5.6,0" transform="translate(-4.97 -1.281)" fill="#caf0dc"/>
      <path id="Path_1358" data-name="Path 1358" d="M28.749,29.123a4.467,4.467,0,0,1-.577,5.439l-4.7-4.7c.742-.494,1.731-1.154,2.884-1.813.082-.082.165-.082.246-.165a7.723,7.723,0,0,1,.66-.412c.082-.082.164-.082.247-.165Z" transform="translate(-4.13 -4.804)" fill="#caf0dc"/>
      <path id="Path_1359" data-name="Path 1359" d="M13.178,24.01l4.944,4.944c-3.626,3.379-7.417,5.027-8.736,3.708-1.236-1.236.412-5.027,3.792-8.653" transform="translate(-1.579 -4.224)" fill="#caf0dc"/>
      <path id="Path_1360" data-name="Path 1360" d="M15.774,15.69l-.083.165c-.164.165-.246.33-.412.494l-.164.247c-.824,1.154-1.648,2.143-2.308,2.967L8.274,15.031a4.263,4.263,0,0,1,5.44-.577Z" transform="translate(-1.456 -2.415)" fill="#caf0dc"/>
      <path id="Path_1361" data-name="Path 1361" d="M32,16.064a5.027,5.027,0,0,1-3.544-8.57A5.131,5.131,0,0,1,32,6.01a4.926,4.926,0,0,1,3.544,1.483,5.132,5.132,0,0,1,1.483,3.544,4.926,4.926,0,0,1-1.483,3.544A4.983,4.983,0,0,1,32,16.064M32,8.07a3.08,3.08,0,0,0-2.06.824A2.885,2.885,0,0,0,32,13.839a3.082,3.082,0,0,0,2.06-.824,2.864,2.864,0,0,0,.824-2.06,3.082,3.082,0,0,0-.824-2.06A2.928,2.928,0,0,0,32,8.07" transform="translate(-4.745 -1.057)" fill="#15bb66"/>
      <path id="Path_1362" data-name="Path 1362" d="M26.645,28.933a1.141,1.141,0,0,1-.907-.494.965.965,0,0,1,.33-1.4l.247-.165a1.017,1.017,0,1,1,1.07,1.731l-.246.165a.884.884,0,0,1-.494.165" transform="translate(-4.498 -4.697)" fill="#1e81ce"/>
      <path id="Path_1363" data-name="Path 1363" d="M27.845,28.233a1.14,1.14,0,0,1-.907-.494.965.965,0,0,1,.33-1.4l.247-.165a1.017,1.017,0,1,1,1.07,1.731l-.246.165a1.179,1.179,0,0,1-.494.165" transform="translate(-4.709 -4.574)" fill="#1e81ce"/>
      <path id="Path_1364" data-name="Path 1364" d="M27.948,35.3a1.007,1.007,0,0,1-.742-.33l-4.7-4.615a1.049,1.049,0,0,1,1.483-1.483l3.873,3.873a3.32,3.32,0,0,0-.165-3.379l-1.236-1.9A1.018,1.018,0,0,1,28.2,26.4l1.236,1.9a5.374,5.374,0,0,1-.742,6.757,1.329,1.329,0,0,1-.742.247" transform="translate(-3.905 -4.556)" fill="#15bb66"/>
      <path id="Path_1365" data-name="Path 1365" d="M16.456,17.908a1.1,1.1,0,0,1-.659-.247,1.123,1.123,0,0,1-.165-1.483l.165-.247a1.055,1.055,0,1,1,1.648,1.319l-.165.247a1.311,1.311,0,0,1-.824.412" transform="translate(-2.714 -2.737)" fill="#1e81ce"/>
      <path id="Path_1366" data-name="Path 1366" d="M12.683,20.312a1,1,0,0,1-.742-.33L7.409,15.45a1.045,1.045,0,0,1,0-1.483,5.374,5.374,0,0,1,6.757-.742l1.978,1.319a1.011,1.011,0,0,1,.33,1.319l-.082.082a1.06,1.06,0,0,1-1.4.494.844.844,0,0,1-.494-.412l-1.484-.989a3.375,3.375,0,0,0-3.3-.165l3.708,3.708a1.045,1.045,0,0,1,0,1.483,1.325,1.325,0,0,1-.741.247" transform="translate(-1.249 -2.174)" fill="#15bb66"/>
      <path id="Path_1367" data-name="Path 1367" d="M10.494,34.018a2.593,2.593,0,0,1-1.978-.742c-.659-.659-1.236-1.978-.082-4.615a19.485,19.485,0,0,1,3.791-5.521,1.05,1.05,0,0,1,1.566,1.4C10.329,28.25,9.505,31.3,10,31.793s3.544-.33,7.252-3.791a1.05,1.05,0,1,1,1.4,1.566,19.491,19.491,0,0,1-5.521,3.791,8.623,8.623,0,0,1-2.636.659" transform="translate(-1.368 -4.014)" fill="#15bb66"/>
      <path id="Path_1368" data-name="Path 1368" d="M19.012,26.708l-7.5-7.5a1,1,0,0,1-.082-1.319c.33-.412,8.241-10.713,8.9-11.537A14.7,14.7,0,0,1,30.466.75L38.3.007a1.082,1.082,0,0,1,1.154,1.155L38.79,8.331a14.322,14.322,0,0,1-6.51,10.877S20.66,26.625,20.33,26.872a1.021,1.021,0,0,1-1.319-.165m-5.357-8.241,6.263,6.263c11.125-7.169,10.96-7.087,11.207-7.252a12.2,12.2,0,0,0,5.6-9.311l.577-5.934-6.593.578a12.28,12.28,0,0,0-8.653,4.779c-.659.742-7.334,9.477-8.406,10.878" transform="translate(-1.974 0)" fill="#15bb66"/>
      <path id="Path_1369" data-name="Path 1369" d="M1.05,40.982a1,1,0,0,1-.741-.33,1.045,1.045,0,0,1,0-1.483l3.625-3.626a1.049,1.049,0,0,1,1.484,1.483L1.792,40.652a.894.894,0,0,1-.742.33" transform="translate(0 -6.198)" fill="#15bb66"/>
      <path id="Path_1370" data-name="Path 1370" d="M1.05,45.808a1,1,0,0,1-.741-.33,1.045,1.045,0,0,1,0-1.483l5.85-5.851a1.049,1.049,0,0,1,1.483,1.483L1.792,45.478a.894.894,0,0,1-.742.33" transform="translate(0 -6.656)" fill="#15bb66"/>
    </g>
  </g>
</svg>
