<svg id="Group_146" data-name="Group 146" xmlns="http://www.w3.org/2000/svg" width="36.595" height="38.251" viewBox="0 0 36.595 38.251">
  <path id="Path_1240" data-name="Path 1240" d="M36.691,31.592a7.42,7.42,0,1,1-7.42,7.42,7.41,7.41,0,0,1,7.42-7.42" transform="translate(-8.381 -9.045)" fill="rgba(21,187,102,0.2)"/>
  <path id="Path_1241" data-name="Path 1241" d="M32.282,14.725a7.329,7.329,0,0,1-3.314-6.2,7.388,7.388,0,1,1,3.314,6.2" transform="translate(-8.294 -0.318)" fill="rgba(21,187,102,0.2)"/>
  <path id="Path_1242" data-name="Path 1242" d="M8.631,17.865a7.42,7.42,0,1,1-7.42,7.42,7.409,7.409,0,0,1,7.42-7.42" transform="translate(-0.347 -5.115)" fill="rgba(21,187,102,0.2)"/>
  <path id="Path_1243" data-name="Path 1243" d="M36.343,46.921a8.32,8.32,0,1,1,8.284-8.356,8.285,8.285,0,0,1-8.284,8.356m0-14.839a6.483,6.483,0,1,0,6.483,6.483,6.5,6.5,0,0,0-6.483-6.483" transform="translate(-8.033 -8.67)" fill="#15bb66"/>
  <path id="Path_1244" data-name="Path 1244" d="M8.284,33.222a8.284,8.284,0,1,1,8.284-8.284,8.285,8.285,0,0,1-8.284,8.284m0-14.84a6.483,6.483,0,1,0,6.483,6.483,6.5,6.5,0,0,0-6.483-6.483" transform="translate(0 -4.768)" fill="#15bb66"/>
  <path id="Path_1245" data-name="Path 1245" d="M36.012,16.568A8.639,8.639,0,0,1,31.4,15.2,8.279,8.279,0,1,1,44.224,8.285a8.134,8.134,0,0,1-8.212,8.284m0-14.84a6.491,6.491,0,0,0-3.6,11.886,6.4,6.4,0,0,0,3.6,1.081,6.483,6.483,0,1,0,0-12.966" transform="translate(-7.918 0)" fill="#15bb66"/>
  <path id="Path_1246" data-name="Path 1246" d="M26.6,25.274h-4.97a.936.936,0,1,1,0-1.873h4.538l3.025-4.179a.879.879,0,1,1,1.44,1.009L27.318,24.77a.749.749,0,0,1-.72.5" transform="translate(-5.924 -5.392)" fill="#15bb66"/>
  <path id="Path_1247" data-name="Path 1247" d="M32.022,31.516a.887.887,0,0,1-.721-.36l-3.314-4.394a.922.922,0,1,1,1.441-1.152L32.742,30a.992.992,0,0,1-.144,1.3.726.726,0,0,1-.576.216" transform="translate(-7.962 -7.24)" fill="#15bb66"/>
  <rect id="Rectangle_82" data-name="Rectangle 82" width="36.595" height="38.251" transform="translate(0)" fill="none"/>
</svg>
