<svg id="Group_147" data-name="Group 147" xmlns="http://www.w3.org/2000/svg" width="37.876" height="37.469" viewBox="0 0 37.876 37.469">
  <g id="Group_77" data-name="Group 77" transform="translate(0)">
    <path id="Path_1251" data-name="Path 1251" d="M28.584,3.876a17.76,17.76,0,0,1,6.126,24.48,17.989,17.989,0,0,1-14.2,8.564L32.62,17.151H27.358L15.465,36.635a20.348,20.348,0,0,1-3.531-1.142L21.952,19.149H16.691L8.113,33.138a18.127,18.127,0,0,1-2.667-2.569L11.285,21H6.023L2.779,26.357A17.527,17.527,0,0,1,3.861,9.943,18.156,18.156,0,0,1,28.584,3.876" transform="translate(-0.354 -0.379)" fill="rgba(21,187,102,0.2)"/>
    <path id="Path_1252" data-name="Path 1252" d="M20.156,37.469a1,1,0,0,1-.793-.428,1.054,1.054,0,0,1,0-.928L30.679,17.628H27.509L15.9,36.684a.871.871,0,0,1-.937.428A15.853,15.853,0,0,1,11.291,35.9a.82.82,0,0,1-.5-.571.835.835,0,0,1,.073-.714l9.154-14.988H16.841L8.552,33.258a1.122,1.122,0,0,1-.577.428.844.844,0,0,1-.72-.143,20.055,20.055,0,0,1-2.811-2.712.856.856,0,0,1-.072-1l5.045-8.207H6.246L3.29,26.478a.947.947,0,0,1-.865.428.887.887,0,0,1-.793-.5A18.711,18.711,0,0,1,2.713,9.064,19.216,19.216,0,0,1,9.777,2.355,19.612,19.612,0,0,1,18.931,0a18.947,18.947,0,0,1,9.8,2.712A18.617,18.617,0,0,1,35.149,28.4a19.071,19.071,0,0,1-14.993,9.064h0M27,15.844h5.261a.83.83,0,0,1,.793.428,1.045,1.045,0,0,1,0,.928L21.887,35.47a17.221,17.221,0,0,0,11.676-7.922A16.85,16.85,0,0,0,27.8,4.282a17.6,17.6,0,0,0-8.865-2.427A16.939,16.939,0,0,0,4.3,10.063,16.626,16.626,0,0,0,2.641,23.98L4.948,20.2a.83.83,0,0,1,.793-.428H11a.829.829,0,0,1,.792.428,1.049,1.049,0,0,1,0,.928L6.318,30.118l1.3,1.285,8.073-13.2a.83.83,0,0,1,.793-.428h5.262a.829.829,0,0,1,.792.428,1.049,1.049,0,0,1,0,.928L12.949,34.685a13.275,13.275,0,0,0,1.8.571L26.283,16.344a.867.867,0,0,1,.721-.5" transform="translate(0)" fill="#15bb66"/>
  </g>
</svg>
