<svg xmlns="http://www.w3.org/2000/svg" width="35.793" height="38.093" viewBox="0 0 35.793 38.093">
  <g id="Group_145" data-name="Group 145" transform="translate(0)">
    <path id="Path_1203" data-name="Path 1203" d="M42.038,7,33.545,9.428,25.051,7h.429l8.065-2.427Z" transform="translate(-7.172 -1.31)" fill="rgba(21,187,102,0.2)"/>
    <path id="Path_1205" data-name="Path 1205" d="M33.545,10.4v9.706l-8.493-2.427V7.975Z" transform="translate(-7.172 -2.283)" fill="rgba(21,187,102,0.2)"/>
    <path id="Path_1207" data-name="Path 1207" d="M30.137,24l-8.493,2.427L13.152,24l8.493-2.427Z" transform="translate(-3.765 -6.177)" fill="rgba(21,187,102,0.2)"/>
    <path id="Path_1208" data-name="Path 1208" d="M21.644,27.4v9.707l-8.492-2.427V24.975Z" transform="translate(-3.765 -7.15)" fill="rgba(21,187,102,0.2)"/>
    <path id="Path_1210" data-name="Path 1210" d="M18.266,7,9.774,9.428,1.352,7,9.774,4.575Z" transform="translate(-0.387 -1.31)" fill="rgba(21,187,102,0.2)"/>
    <path id="Path_1212" data-name="Path 1212" d="M9.773,37.6v9.635L1.352,44.881V35.175Z" transform="translate(-0.387 -10.071)" fill="rgba(21,187,102,0.2)"/>
    <path id="Path_1214" data-name="Path 1214" d="M9.773,10.4v9.706L1.352,17.682V7.975Z" transform="translate(-0.387 -2.283)" fill="rgba(21,187,102,0.2)"/>
    <path id="Path_1215" data-name="Path 1215" d="M21.3,27.909h-.214l-8.492-2.427a.883.883,0,1,1,.428-1.713L21.51,26.2a.935.935,0,0,1,.642,1.071.9.9,0,0,1-.856.642" transform="translate(-3.416 -6.802)" fill="#15bb66"/>
    <path id="Path_1216" data-name="Path 1216" d="M21.3,41.509h-.214l-8.492-2.426a.883.883,0,1,1,.428-1.714L21.51,39.8a.934.934,0,0,1,.642,1.071.9.9,0,0,1-.856.642" transform="translate(-3.416 -10.695)" fill="#15bb66"/>
    <path id="Path_1217" data-name="Path 1217" d="M12.78,35.165a.945.945,0,0,1-.928-.928V24.6a.928.928,0,0,1,1.856,0v9.706a.885.885,0,0,1-.928.856" transform="translate(-3.393 -6.778)" fill="#15bb66"/>
    <path id="Path_1218" data-name="Path 1218" d="M.98,31.765a.945.945,0,0,1-.929-.928V21.2a.946.946,0,0,1,.929-.928.946.946,0,0,1,.928.928v9.706a.986.986,0,0,1-.928.856" transform="translate(-0.014 -5.805)" fill="#15bb66"/>
    <path id="Path_1219" data-name="Path 1219" d="M9.4,47.809H9.187L.693,45.383a.922.922,0,0,1-.642-.856V34.819a.88.88,0,0,1,.357-.714,1,1,0,0,1,.786-.142L9.686,36.39a.922.922,0,0,1,.642.856v9.706a.876.876,0,0,1-.357.714,1.333,1.333,0,0,1-.57.143m-7.566-4L8.544,45.74V37.889L1.835,35.962Z" transform="translate(-0.014 -9.716)" fill="#15bb66"/>
    <path id="Path_1220" data-name="Path 1220" d="M24.679,37.606a.949.949,0,0,1-.571-.214.877.877,0,0,1-.357-.714V27.043a.923.923,0,0,1,.643-.856l8.492-2.426a.883.883,0,0,1,.429,1.712l-7.851,2.213v7.851l7.422-2.07a.883.883,0,0,1,.429,1.714l-8.422,2.426Z" transform="translate(-6.8 -6.792)" fill="#15bb66"/>
    <path id="Path_1221" data-name="Path 1221" d="M36.58,34.192a.954.954,0,0,1-.571-.214.878.878,0,0,1-.357-.714V23.629a.928.928,0,1,1,1.856,0v8.493l6.637-1.928V21.2A.928.928,0,1,1,46,21.2v9.705a.923.923,0,0,1-.642.857l-8.493,2.427Z" transform="translate(-10.207 -5.805)" fill="#15bb66"/>
    <path id="Path_1222" data-name="Path 1222" d="M9.4,20.681H9.187L.694,18.254A.923.923,0,0,1,.051,17.4V7.62a.88.88,0,0,1,.357-.714.993.993,0,0,1,.786-.143L9.686,9.19A.883.883,0,1,1,9.258,10.9L1.835,8.833v7.851L9.686,18.9a.936.936,0,0,1,.643,1.071.985.985,0,0,1-.928.714" transform="translate(-0.014 -1.928)" fill="#15bb66"/>
    <path id="Path_1223" data-name="Path 1223" d="M12.78,20.677a.954.954,0,0,1-.571-.214.876.876,0,0,1-.357-.714V10.043a.922.922,0,0,1,.642-.856L20.987,6.76a.818.818,0,0,1,1.071.642.818.818,0,0,1-.642,1.071l-7.851,2.212v7.851l7.35-2.07a.883.883,0,0,1,.429,1.713l-8.28,2.426c-.071,0-.213.072-.285.072" transform="translate(-3.393 -1.925)" fill="#15bb66"/>
    <path id="Path_1224" data-name="Path 1224" d="M21.3,7.609h-.214L12.589,5.182a.936.936,0,0,1-.643-1.071.936.936,0,0,1,1.071-.642L21.51,5.9a.935.935,0,0,1,.642,1.071,1,1,0,0,1-.856.642" transform="translate(-3.416 -0.989)" fill="#15bb66"/>
    <path id="Path_1225" data-name="Path 1225" d="M.893,7.6a1,1,0,0,1-.856-.642A.819.819,0,0,1,.679,5.887L9.172,3.46a.819.819,0,0,1,1.071.642A.819.819,0,0,1,9.6,5.173L1.178,7.528C1.107,7.6,1.036,7.6.893,7.6" transform="translate(0 -0.98)" fill="#15bb66"/>
    <path id="Path_1226" data-name="Path 1226" d="M33.2,20.681h-.214l-8.493-2.427a.922.922,0,0,1-.642-.856V7.62a.878.878,0,0,1,.357-.714.991.991,0,0,1,.785-.143L33.415,9.19a.883.883,0,0,1-.428,1.713l-7.351-2.07v7.851L33.487,18.9a.935.935,0,0,1,.642,1.071,1.143,1.143,0,0,1-.928.714" transform="translate(-6.829 -1.928)" fill="#15bb66"/>
    <path id="Path_1227" data-name="Path 1227" d="M36.58,20.681a.954.954,0,0,1-.571-.214.878.878,0,0,1-.357-.714V10.047a.921.921,0,0,1,.642-.856l8.494-2.427a.989.989,0,0,1,.784.143.876.876,0,0,1,.357.714v9.706a.921.921,0,0,1-.642.856l-8.493,2.426c-.071,0-.143.072-.214.072m.856-9.92v7.851l6.708-1.927V8.833Z" transform="translate(-10.207 -1.928)" fill="#15bb66"/>
    <path id="Path_1228" data-name="Path 1228" d="M21.73,6.619h-.214L21.3,6.548,12.594,4.193a.857.857,0,0,1-.642-.856.857.857,0,0,1,.642-.856L21.087.054a.611.611,0,0,1,.5,0L30.08,2.48a.921.921,0,0,1,.642.856.921.921,0,0,1-.642.856L21.944,6.548a.263.263,0,0,1-.214.071M16.163,3.265l5.567,1.5,4.924-1.5-5.281-1.5Z" transform="translate(-3.422 0)" fill="#15bb66"/>
    <path id="Path_1229" data-name="Path 1229" d="M45.067,7.58h-.215l-8.564-2.5a.935.935,0,0,1-.642-1.071.935.935,0,0,1,1.071-.642L45.209,5.8a.936.936,0,0,1,.643,1.071.831.831,0,0,1-.785.714" transform="translate(-10.202 -0.961)" fill="#15bb66"/>
    <path id="Path_1230" data-name="Path 1230" d="M24.693,7.571a1,1,0,0,1-.856-.642.818.818,0,0,1,.642-1.071l.214-.071L32.9,3.36A.818.818,0,0,1,33.971,4a.818.818,0,0,1-.642,1.071L24.908,7.5a.264.264,0,0,1-.215.071" transform="translate(-6.814 -0.951)" fill="#15bb66"/>
    <path id="Path_1231" data-name="Path 1231" d="M12.812,49.742a.7.7,0,0,1-.642-.285.981.981,0,0,1,.071-1.285l8.493-7.279a.91.91,0,0,1,1.213,1.355l-8.564,7.28a.81.81,0,0,1-.571.214" transform="translate(-3.425 -11.649)" fill="#15bb66"/>
    <rect id="Rectangle_74" data-name="Rectangle 74" width="35.793" height="38.093" transform="translate(0)" fill="none"/>
  </g>
</svg>
