<svg xmlns="http://www.w3.org/2000/svg" width="43.577" height="32.094" viewBox="0 0 43.577 32.094">
  <g id="Group_184" data-name="Group 184" transform="translate(-672 -1674)">
    <path id="Path_1371" data-name="Path 1371" d="M46.377,16.239V28.666L22.6,33.8V21.375l10.356-2.237Z" transform="translate(668.123 1671.214)" fill="#caf0dc"/>
    <path id="Path_1372" data-name="Path 1372" d="M48.521,14.729l-13.42,2.9V7.439Z" transform="translate(665.978 1672.724)" fill="#caf0dc"/>
    <path id="Path_1373" data-name="Path 1373" d="M25.16,1.239V13.666L14.8,15.9,1.3,18.8V6.375Z" transform="translate(671.777 1673.787)" fill="#fff"/>
    <path id="Path_1374" data-name="Path 1374" d="M14.8,18.939v10.19L1.3,21.839Z" transform="translate(671.777 1670.751)" fill="#fff"/>
    <path id="Path_1375" data-name="Path 1375" d="M34.878,18.491A1.1,1.1,0,0,1,33.8,17.415V7.225a1.143,1.143,0,0,1,.5-.911,1.056,1.056,0,0,1,.994,0l13.42,7.29a1.038,1.038,0,0,1-.993,1.823L35.789,8.964v8.45a.965.965,0,0,1-.911,1.077" transform="translate(666.202 1672.938)" fill="#15bb66"/>
    <path id="Path_1376" data-name="Path 1376" d="M22.378,34.649a.941.941,0,0,1-.664-.249,1.02,1.02,0,0,1-.414-.828V21.146a.984.984,0,0,1,.828-.994l23.86-5.219a.906.906,0,0,1,.828.166,1.02,1.02,0,0,1,.414.828V28.353a.985.985,0,0,1-.828.994l-23.86,5.219a.255.255,0,0,1-.165.083m.993-12.675V32.247L45.16,27.525V17.252Z" transform="translate(668.346 1671.444)" fill="#15bb66"/>
    <path id="Path_1377" data-name="Path 1377" d="M14.592,29.9a1.056,1.056,0,0,1-.5-.083l-13.5-7.29a1.062,1.062,0,0,1-.414-1.408A1.061,1.061,0,0,1,1.586,20.7l11.929,6.462v-8.45a1.077,1.077,0,0,1,2.155,0v10.19a1.143,1.143,0,0,1-.5.911,1.615,1.615,0,0,1-.579.083" transform="translate(671.989 1670.974)" fill="#15bb66"/>
    <path id="Path_1378" data-name="Path 1378" d="M1.077,19.667a.942.942,0,0,1-.663-.249A1.022,1.022,0,0,1,0,18.59V6.163a.985.985,0,0,1,.828-.994L24.688.032A.9.9,0,0,1,25.516.2a1.017,1.017,0,0,1,.414.828V13.453a.983.983,0,0,1-.828.994L1.243,19.667ZM2.155,6.991V17.264l21.7-4.639V2.269Z" transform="translate(672 1674)" fill="#15bb66"/>
  </g>
</svg>
