<svg id="Group_144" data-name="Group 144" xmlns="http://www.w3.org/2000/svg" width="38.055" height="40.16" viewBox="0 0 38.055 40.16">
  <path id="Path_1179" data-name="Path 1179" d="M7.11,26.024c.286.358,4.8,6.522,4.8,6.522.43.143,7.669,2.437,7.669,2.509l7.669-2.509s4.73-6.522,4.73-6.593v-8.1l-4.8-6.521,3.512-4.946c.789,1,6.235,8.529,6.951,9.532,0,1.434,0,10.392.073,11.825,0,0-6.881,9.6-6.953,9.6L19.509,41.075S8.758,37.635,8.257,37.42c-.716-.932-6.306-8.6-6.951-9.532V15.99s6.521-9.03,6.951-9.6l3.584,4.874c-.287.358-4.73,6.522-4.73,6.593-.072.43,0,8.1,0,8.17" transform="translate(-0.374 -1.829)" fill="rgba(21,187,102,0.2)"/>
  <path id="Path_1181" data-name="Path 1181" d="M22.2,7.357c-.43.143-7.525,2.509-7.668,2.509L10.945,4.992c.144-.071,10.608-3.511,11.252-3.726L33.45,4.849,29.938,9.794c0,.072-7.669-2.437-7.741-2.437" transform="translate(-3.134 -0.363)" fill="rgba(21,187,102,0.2)"/>
  <path id="Path_1182" data-name="Path 1182" d="M30.489,27.555h0c0,.071-.072.071,0,0h0c-.143.215-.574.788-2.294,3.225-.215.071-.932.286-3.727,1.218,0,0-3.583-1.147-3.726-1.218,0,0-2.222-3.01-2.365-3.154V23.684s2.15-3.01,2.293-3.224c.143-.072.932-.287,3.727-1.219,0,0,3.583,1.147,3.727,1.219.071.143.573.788,2.293,3.153a23.817,23.817,0,0,1,.072,3.942" transform="translate(-5.261 -5.509)" fill="rgba(21,187,102,0.2)"/>
  <path id="Path_1186" data-name="Path 1186" d="M23.18,36.547c-.216-.072-7.095-2.293-7.669-2.437a.9.9,0,0,1-.358-1.505.87.87,0,0,1,.932-.215c5.088,1.648,6.808,2.15,7.381,2.364.717-.215,4.157-1.362,7.167-2.364C33.285,28.664,34.646,26.8,35,26.3V18.774c-.5-.717-4.013-5.518-4.443-6.091-1.433-.5-7.382-2.365-7.454-2.365a1,1,0,0,1-.644-.86.925.925,0,0,1,.644-.86h-.071l.286.788.287-.788,7.669,2.509c.143.071.359.143.43.358l4.8,6.522a1.331,1.331,0,0,1,.143.5v8.1a1.04,1.04,0,0,1-.143.5c0,.143-4.659,6.593-4.659,6.593a1.888,1.888,0,0,1-.43.358s-7.525,2.437-7.669,2.509Z" transform="translate(-4.259 -2.462)" fill="#15bb66"/>
  <path id="Path_1187" data-name="Path 1187" d="M14.747,12.234a.939.939,0,0,1,.573-1.147c.143-.071,7.024-2.293,7.669-2.508a.906.906,0,0,1,.574,1.719c-.358.144-7.525,2.509-7.669,2.509a.833.833,0,0,1-1.146-.573" transform="translate(-4.211 -2.444)" fill="#15bb66"/>
  <path id="Path_1188" data-name="Path 1188" d="M8.481,20.3a.844.844,0,0,1-.215-1.218c.573-.788,4.73-6.593,4.8-6.593a.911.911,0,0,1,1.29-.072.968.968,0,0,1,.072,1.218c-.358.5-4.73,6.522-4.73,6.522a.894.894,0,0,1-1.218.143" transform="translate(-2.317 -3.488)" fill="#15bb66"/>
  <path id="Path_1191" data-name="Path 1191" d="M20.426,20.623a.878.878,0,0,1,.143-1.146.616.616,0,0,1,.43-.216c.143-.071.5-.143,1.146-.358l2.437-.789a.615.615,0,0,1,.5,0s3.583,1.147,3.8,1.218a.907.907,0,0,1-.574,1.721c-.143-.072-3.081-1-3.511-1.147-3.656,1.218-3.512,1.147-3.512,1.147.072,0-.644-.072-.86-.43" transform="translate(-5.806 -5.171)" fill="#15bb66"/>
  <path id="Path_1192" data-name="Path 1192" d="M17.418,24.533a.844.844,0,0,1-.215-1.218s2.15-2.939,2.293-3.225a.875.875,0,0,1,1.434,1c-.143.215-2.222,3.153-2.294,3.225a.836.836,0,0,1-1.218.215" transform="translate(-4.876 -5.641)" fill="#15bb66"/>
  <path id="Path_1193" data-name="Path 1193" d="M17.071,29.035V25.093a.931.931,0,0,1,1.863,0v3.942a.889.889,0,0,1-.859.932.966.966,0,0,1-1-.932" transform="translate(-4.888 -6.918)" fill="#15bb66"/>
  <path id="Path_1194" data-name="Path 1194" d="M19.593,34.373h0c0-.071-2.222-3.01-2.294-3.153a.871.871,0,0,1,.072-1.147.84.84,0,0,1,1.362.143c.215.287,2.293,3.153,2.293,3.153a.835.835,0,0,1-.215,1.218.99.99,0,0,1-1.218-.215" transform="translate(-4.901 -8.529)" fill="#15bb66"/>
  <path id="Path_1195" data-name="Path 1195" d="M24.74,37.124s-3.584-1.146-3.8-1.218a.906.906,0,1,1,.572-1.72c.144.071,3.01.932,3.512,1.147,3.727-1.218,3.441-1.147,3.512-1.147a.848.848,0,0,1,1.075.645.878.878,0,0,1-.644,1.075c-.216.072-1,.358-3.656,1.218a.78.78,0,0,1-.573,0" transform="translate(-5.819 -9.775)" fill="#15bb66"/>
  <path id="Path_1196" data-name="Path 1196" d="M31.176,34.5a.845.845,0,0,1-.216-1.219c1.72-2.364,2.15-3.01,2.294-3.153a.875.875,0,1,1,1.433,1c-.072.143-.573.789-2.293,3.154a.825.825,0,0,1-1.218.215" transform="translate(-8.815 -8.516)" fill="#15bb66"/>
  <path id="Path_1197" data-name="Path 1197" d="M34.042,28.964V25.022a.872.872,0,0,1,.86-.86,1,1,0,0,1,.932.86v3.942a.938.938,0,0,1-.86.931.949.949,0,0,1-.932-.931" transform="translate(-9.746 -6.918)" fill="#15bb66"/>
  <path id="Path_1198" data-name="Path 1198" d="M33.243,24.318c-.143-.216-2.222-3.01-2.294-3.154a.884.884,0,0,1,.287-1.362.918.918,0,0,1,1.147.287c.071.143.43.645,2.293,3.153a.835.835,0,0,1-.215,1.218.894.894,0,0,1-1.218-.143m-2.437-3.727a1.022,1.022,0,0,0,.143.43.526.526,0,0,1-.143-.43" transform="translate(-8.804 -5.641)" fill="#15bb66"/>
  <path id="Path_1199" data-name="Path 1199" d="M13.456,11.59,9.873,6.716a.908.908,0,0,1,.716-1.433.882.882,0,0,1,.717.358l3.583,4.874a.835.835,0,0,1-.215,1.218.783.783,0,0,1-1.219-.143" transform="translate(-2.778 -1.513)" fill="#15bb66"/>
  <g id="Group_36" data-name="Group 36" transform="translate(0 0)">
    <path id="Path_1183" data-name="Path 1183" d="M21.75,40.123C21.463,40.051,10.5,36.54,10.5,36.54a.88.88,0,0,1-.573-1.146.939.939,0,0,1,1.146-.574c.287.071,9.245,2.938,10.965,3.512,1.577-.5,9.1-3.01,10.679-3.512,1-1.362,5.662-7.811,6.593-9.1,0-1.863,0-9.174-.071-11.252-1.147-1.505-5.519-7.525-6.665-9.1-2.938-.931-10.965-3.512-10.965-3.512a.925.925,0,0,1-.645-.86.9.9,0,0,1,.645-.859c.071,0,.143-.072.286-.072a1.024,1.024,0,0,1,.43.143c.645.215,2.8.932,5.017,1.648l6.02,1.936c.144.072.358.143.43.287.789,1,6.235,8.528,6.951,9.531a.682.682,0,0,1,.143.5V25.933a1.03,1.03,0,0,1-.143.5c-.071.071-6.808,9.46-6.951,9.6a1.875,1.875,0,0,1-.43.358c-.214.072-11.108,3.655-11.251,3.727,0,.072-.143.072-.358,0" transform="translate(-2.829 -0.018)" fill="#15bb66"/>
    <path id="Path_1184" data-name="Path 1184" d="M9.723,4.917A.882.882,0,0,1,10.3,3.771C10.44,3.7,20.9.259,21.548.044a.882.882,0,0,1,1.147.574.882.882,0,0,1-.573,1.147c-.645.214-11.109,3.655-11.252,3.726a.879.879,0,0,1-1.147-.573" transform="translate(-2.771 0)" fill="#15bb66"/>
    <path id="Path_1185" data-name="Path 1185" d="M7.6,37.952a.865.865,0,0,1-.5-.5C6.021,35.945.932,28.993.216,28.062a.682.682,0,0,1-.143-.5L0,15.735a1.033,1.033,0,0,1,.144-.5s.5-.717,1.218-1.649C3.3,10.933,6.809,6.059,7.1,5.63a.875.875,0,0,1,1.434,1c-.358.5-5.949,8.242-6.737,9.389l.072,11.252C3.01,28.85,8.027,35.659,8.672,36.59a.972.972,0,0,1,0,1.075.809.809,0,0,1-1.075.287" transform="translate(0 -1.501)" fill="#15bb66"/>
    <path id="Path_1189" data-name="Path 1189" d="M9.065,31.24a.939.939,0,0,1-.932-.86v-8.1a.932.932,0,0,1,1.864,0c.071,12.04,0,6.665,0,8.1a1.064,1.064,0,0,1-.932.86" transform="translate(-2.329 -6.113)" fill="#15bb66"/>
    <path id="Path_1190" data-name="Path 1190" d="M13,40.48c-3.655-5.017-4.658-6.379-4.73-6.45a.963.963,0,0,1,.072-1.147.88.88,0,0,1,1.361.072c.072.072,4.8,6.522,4.8,6.522a.975.975,0,0,1,0,1.075A.872.872,0,0,1,13,40.48" transform="translate(-2.325 -9.332)" fill="#15bb66"/>
    <path id="Path_1200" data-name="Path 1200" d="M36.7,11.692a.844.844,0,0,1-.216-1.218l3.511-4.945a.875.875,0,0,1,1.434,1l-3.512,4.945a.844.844,0,0,1-1.218.215" transform="translate(-10.396 -1.472)" fill="#15bb66"/>
  </g>
  <rect id="Rectangle_66" data-name="Rectangle 66" width="38.055" height="40.159" transform="translate(0)" fill="none"/>
</svg>
