<svg xmlns="http://www.w3.org/2000/svg" width="34.432" height="34" viewBox="0 0 34.432 34">
  <g id="Group_187" data-name="Group 187" transform="translate(-1247 -1586)">
    <path id="Path_1383" data-name="Path 1383" d="M40.609,18.2a16.114,16.114,0,0,1-5.566,18.7,16.669,16.669,0,0,1-14.01,2.725A60.438,60.438,0,0,0,26.1,36.222C34.605,29.9,40.359,22.6,40.609,18.2" transform="translate(1238.993 1579.071)" fill="#d0f1e0"/>
    <path id="Path_1384" data-name="Path 1384" d="M30.847,7.681c.188.248.375.5.5.681-3.628-1.858-12.2,1.053-20.89,7.06a2.8,2.8,0,0,0-2.94.186,2.689,2.689,0,0,0-1,2.787,55.523,55.523,0,0,0-4.441,3.964A16.265,16.265,0,0,1,7.893,4.337,16.559,16.559,0,0,1,30.847,7.681" transform="translate(1246.503 1585.564)" fill="#d0f1e0"/>
    <path id="Path_1385" data-name="Path 1385" d="M24.444,24.118c1.563,2.044-.688,6.317-5,9.537S10.37,37.8,8.807,35.761C7.618,34.213,8.619,31.426,11,28.825a2.8,2.8,0,0,0,2.5-.372,2.647,2.647,0,0,0,1.063-2.663c4.065-2.911,8.381-3.654,9.882-1.672" transform="translate(1243.838 1577.241)" fill="#fff"/>
    <path id="Path_1386" data-name="Path 1386" d="M24.716,40.464h0a17.8,17.8,0,0,1-4.44-.557.73.73,0,0,1-.563-.619.7.7,0,0,1,.375-.743,50.928,50.928,0,0,0,5-3.406c8.068-6.007,13.885-13.129,14.2-17.4a.8.8,0,0,1,.687-.743.8.8,0,0,1,.876.5A16.929,16.929,0,0,1,35.036,37.12a17.537,17.537,0,0,1-10.32,3.344m-2.127-1.672a12.257,12.257,0,0,0,2.127.124,15.626,15.626,0,0,0,9.382-3.1,15.433,15.433,0,0,0,6-15.049c-1.876,4.583-7.129,10.466-14.01,15.607-1.188.805-2.314,1.61-3.5,2.415" transform="translate(1239.5 1579.536)" fill="#15bb66"/>
    <path id="Path_1387" data-name="Path 1387" d="M1.579,22.729H1.391a.762.762,0,0,1-.563-.5A16.877,16.877,0,0,1,6.9,3.406,17.173,17.173,0,0,1,17.215,0a17.594,17.594,0,0,1,7.569,1.734,16.917,16.917,0,0,1,6.192,5.078,5.162,5.162,0,0,1,.5.743.738.738,0,0,1-.063.929.88.88,0,0,1-.938.186A5.253,5.253,0,0,0,28.1,8.237c-4.253,0-11.071,2.849-17.7,7.494a.775.775,0,0,1-.813.062,2.645,2.645,0,0,0-.939-.248,2.075,2.075,0,0,0-1.188.372A2,2,0,0,0,6.708,17.9a.79.79,0,0,1-.25.743,52.8,52.8,0,0,0-4.379,3.9c-.062.124-.312.186-.5.186M17.215,1.486a15.625,15.625,0,0,0-9.381,3.1A15.469,15.469,0,0,0,1.954,20.5q1.5-1.393,3.19-2.787a3.551,3.551,0,0,1,1.375-3.1,3.625,3.625,0,0,1,2.127-.681,3.006,3.006,0,0,1,1.251.248,52.645,52.645,0,0,1,9.883-5.45,22.744,22.744,0,0,1,8.38-2.044h.751a15.59,15.59,0,0,0-11.7-5.2" transform="translate(1247 1586)" fill="#15bb66"/>
    <path id="Path_1388" data-name="Path 1388" d="M10.978,37.059h0A4.02,4.02,0,0,1,7.6,35.634c-1.375-1.858-.563-4.893,2.189-7.927a.826.826,0,0,1,.814-.248,2.242,2.242,0,0,0,.625.124,2.075,2.075,0,0,0,1.188-.372,1.9,1.9,0,0,0,.751-1.92.8.8,0,0,1,.312-.805A14.3,14.3,0,0,1,21.047,21.7a4.02,4.02,0,0,1,3.378,1.424c.938,1.239.876,3.1-.25,5.14a16.71,16.71,0,0,1-4.941,5.45,14.484,14.484,0,0,1-8.256,3.344m-.25-7.927C8.851,31.361,8.1,33.653,8.913,34.767a2.792,2.792,0,0,0,2.127.805c2.064,0,4.878-1.177,7.443-3.035a15.794,15.794,0,0,0,4.5-4.954c.813-1.486.939-2.787.375-3.53a2.79,2.79,0,0,0-2.126-.805,12.75,12.75,0,0,0-6.317,2.291A3.432,3.432,0,0,1,13.48,28.45a3.622,3.622,0,0,1-2.126.681Z" transform="translate(1244.356 1577.739)" fill="#15bb66"/>
    <rect id="Rectangle_202" data-name="Rectangle 202" width="34.432" height="34" transform="translate(1247 1586)" fill="none"/>
  </g>
</svg>
