<svg xmlns="http://www.w3.org/2000/svg" width="32.923" height="37.469" viewBox="0 0 32.923 37.469">
  <g id="Group_150" data-name="Group 150" transform="translate(0)">
    <path id="Path_1267" data-name="Path 1267" d="M42.046,13.8V31.642l-7.063-4.068V17.868Z" transform="translate(-10.016 -3.951)" fill="rgba(21,187,102,0.2)"/>
    <path id="Path_1268" data-name="Path 1268" d="M38.634,10.25,31.57,14.318,23.065,9.393V1.4Z" transform="translate(-6.603 -0.401)" fill="rgba(21,187,102,0.2)"/>
    <path id="Path_1269" data-name="Path 1269" d="M38.634,37.168l-15.569,8.85V38.024L31.57,33.1Z" transform="translate(-6.603 -9.477)" fill="rgba(21,187,102,0.2)"/>
    <path id="Path_1270" data-name="Path 1270" d="M16.819,38.053v7.993L1.251,37.2l7.135-4Z" transform="translate(-0.358 -9.505)" fill="rgba(21,187,102,0.2)"/>
    <path id="Path_1271" data-name="Path 1271" d="M16.819,1.4V9.393L8.314,14.318,1.251,10.25Z" transform="translate(-0.358 -0.401)" fill="rgba(21,187,102,0.2)"/>
    <path id="Path_1272" data-name="Path 1272" d="M8.386,27.645l-7.136,4V13.8l7.064,4.068v9.706Z" transform="translate(-0.358 -3.951)" fill="rgba(21,187,102,0.2)"/>
    <path id="Path_1273" data-name="Path 1273" d="M16.472,37.483a1.032,1.032,0,0,1-.432-.143L.47,28.419a.818.818,0,0,1-.432-.785V9.863A.893.893,0,0,1,.47,9.078L16.04.157a1.079,1.079,0,0,1,.937,0l15.5,8.993a.818.818,0,0,1,.432.785V27.706a.893.893,0,0,1-.432.785L16.9,37.34a1.025,1.025,0,0,1-.432.143M1.84,27.135l14.632,8.422L31.1,27.206V10.434L16.472,2.013,1.84,10.434Z" transform="translate(-0.011 -0.014)" fill="#15bb66"/>
    <path id="Path_1274" data-name="Path 1274" d="M19.305,32.682a1.032,1.032,0,0,1-.432-.143l-8.505-4.853a.818.818,0,0,1-.432-.785V17.2a.893.893,0,0,1,.432-.785l8.505-4.853a1.079,1.079,0,0,1,.937,0l8.506,4.853a.819.819,0,0,1,.432.785v9.778a.819.819,0,0,1-.432.785L19.81,32.611a1.418,1.418,0,0,1-.5.071m-7.64-6.28,7.64,4.354L26.946,26.4V17.695l-7.641-4.354-7.64,4.354Z" transform="translate(-2.844 -3.278)" fill="#15bb66"/>
    <path id="Path_1275" data-name="Path 1275" d="M22.689,19.7a.949.949,0,0,1-.936-.928V.928a.937.937,0,0,1,1.873,0V18.77a.9.9,0,0,1-.937.928" transform="translate(-6.228)" fill="#15bb66"/>
    <path id="Path_1276" data-name="Path 1276" d="M38.276,35.752a1.031,1.031,0,0,1-.433-.143L22.275,26.831a.911.911,0,0,1-.36-1.213.929.929,0,0,1,1.225-.357l.144.071L38.709,34.11a.91.91,0,0,1,.36,1.213,1,1,0,0,1-.792.428" transform="translate(-6.246 -7.204)" fill="#15bb66"/>
    <path id="Path_1277" data-name="Path 1277" d="M.892,35.752A.907.907,0,0,1,.1,35.324.91.91,0,0,1,.46,34.11l15.785-8.85a.928.928,0,0,1,1.225.357.909.909,0,0,1-.36,1.213l-.145.071L1.325,35.609c-.072.143-.288.143-.432.143" transform="translate(0 -7.204)" fill="#15bb66"/>
    <path id="Path_1278" data-name="Path 1278" d="M34.624,18.4a.867.867,0,0,1-.432-1.641l6.991-4a.929.929,0,0,1,1.225.357.91.91,0,0,1-.36,1.213l-6.919,4a1.238,1.238,0,0,1-.5.071" transform="translate(-9.658 -3.625)" fill="#15bb66"/>
    <path id="Path_1279" data-name="Path 1279" d="M7.985,18.37a1.032,1.032,0,0,1-.432-.143l-6.991-4A.91.91,0,0,1,.2,13.017a.929.929,0,0,1,1.225-.357l6.991,4a.917.917,0,0,1-.432,1.713" transform="translate(-0.029 -3.597)" fill="#15bb66"/>
    <path id="Path_1280" data-name="Path 1280" d="M22.689,48.549a.949.949,0,0,1-.936-.928V39.628a.937.937,0,0,1,1.873,0v8.065a.94.94,0,0,1-.937.856" transform="translate(-6.228 -11.08)" fill="#15bb66"/>
    <rect id="Rectangle_92" data-name="Rectangle 92" width="32.923" height="37.469" transform="translate(0)" fill="none"/>
  </g>
</svg>
