<svg id="Group_143" data-name="Group 143" xmlns="http://www.w3.org/2000/svg" width="36.81" height="37.17" viewBox="0 0 36.81 37.17">
  <path id="Path_1171" data-name="Path 1171" d="M19.281,17.754s12.534-1.153,12.1,12.462a35.759,35.759,0,0,1-5.907,6.915,37.992,37.992,0,0,1-5.547,4.107.657.657,0,0,1-.721,0A35.254,35.254,0,0,1,4.514,23.662c-.217-.5-.36-1.008-.577-1.513.216.072,10.085,2.738,15.344-4.394" transform="translate(-1.127 -5.076)" fill="rgba(21,187,102,0.2)"/>
  <path id="Path_1173" data-name="Path 1173" d="M18.514,37.171a1.384,1.384,0,0,1-.865-.288A36.2,36.2,0,0,1,2.521,18.945a14.084,14.084,0,0,1-.576-1.584A35.345,35.345,0,0,1,.36,10.445C.216,9.292.144,8.14.072,6.987A3.5,3.5,0,0,0,0,6.123V6.051a1.517,1.517,0,0,1,.792-1.3A33.24,33.24,0,0,1,12.966.5Q15.128.179,17.288.071c.36,0,.72-.071,1.081-.071h.072A37.818,37.818,0,0,1,36.09,4.754a1.5,1.5,0,0,1,.72,1.369,36.731,36.731,0,0,1-3.386,14.983c-.72,1.513-1.584,3.026-2.449,4.466a37,37,0,0,1-6.051,7.06,37.736,37.736,0,0,1-5.691,4.25.922.922,0,0,1-.719.288M1.873,6.267v.648C1.945,8,2.017,9.22,2.089,10.3A27.772,27.772,0,0,0,3.6,16.856a12.8,12.8,0,0,0,.576,1.513,34.434,34.434,0,0,0,14.263,17,36.593,36.593,0,0,0,5.331-3.962,35.967,35.967,0,0,0,5.762-6.7c.864-1.369,1.656-2.809,2.377-4.25A34.372,34.372,0,0,0,35.154,6.267a34.375,34.375,0,0,0-16.64-4.394c-.36,0-.649.072-1.01.072-1.368.144-2.808.288-4.25.432A31.019,31.019,0,0,0,1.873,6.267" transform="translate(0)" fill="#15bb66"/>
  <path id="Path_1174" data-name="Path 1174" d="M36.552,26.023h0a.953.953,0,0,1-.936-.936c.144-3.962-.864-6.916-2.953-8.86a11.289,11.289,0,0,0-8.14-2.593,1.216,1.216,0,0,1-.72-.216C19.191,9.023,23.729.882,23.946.523A.923.923,0,0,1,25.17.162a.923.923,0,0,1,.36,1.224c-.072.073-3.89,6.916-.72,10.446A12.9,12.9,0,0,1,33.958,15c2.449,2.305,3.674,5.763,3.53,10.229a1,1,0,0,1-.936.792" transform="translate(-6.225 -0.018)" fill="#15bb66"/>
  <path id="Path_1175" data-name="Path 1175" d="M8.1,23.183a19.847,19.847,0,0,1-4.754-.577.926.926,0,0,1-.721-.864.954.954,0,0,1,.937-.936h.216a19.378,19.378,0,0,0,5.475.432A11.59,11.59,0,0,0,18.184,16.7a.879.879,0,1,1,1.44,1.008c-3.169,4.538-8,5.475-11.525,5.475" transform="translate(-0.751 -4.67)" fill="#15bb66"/>
</svg>
