<svg id="Group_148" data-name="Group 148" xmlns="http://www.w3.org/2000/svg" width="27.967" height="33.972" viewBox="0 0 27.967 33.972">
  <g id="Group_80" data-name="Group 80">
    <path id="Path_1254" data-name="Path 1254" d="M27.4,19.041a1.982,1.982,0,0,1-.433,1.285,2.225,2.225,0,0,1-1.153.784L4.051,27.035a2.167,2.167,0,0,1-2.738-2.069A2.146,2.146,0,0,1,2.9,22.9l21.768-5.923A2.2,2.2,0,0,1,27.4,19.041" transform="translate(-0.376 -4.839)" fill="rgba(21,187,102,0.2)"/>
    <path id="Path_1255" data-name="Path 1255" d="M27.4,30.941a2.145,2.145,0,0,1-1.586,2.07L4.051,38.934a2.168,2.168,0,0,1-2.738-2.07A2.21,2.21,0,0,1,2.9,34.794l21.768-5.924a2.168,2.168,0,0,1,2.739,2.07" transform="translate(-0.376 -8.245)" fill="rgba(21,187,102,0.2)"/>
    <path id="Path_1256" data-name="Path 1256" d="M33.845,40.1a2.213,2.213,0,1,1-2.235,2.213A2.223,2.223,0,0,1,33.845,40.1" transform="translate(-9.05 -11.481)" fill="rgba(21,187,102,0.2)"/>
    <path id="Path_1258" data-name="Path 1258" d="M0,12.5A3.067,3.067,0,0,1,2.234,9.575L24,3.652A3.041,3.041,0,1,1,25.659,9.5L3.892,15.428A3.057,3.057,0,0,1,0,12.5M24.506,5.364,2.738,11.287a1.051,1.051,0,0,0-.648.428,1.227,1.227,0,0,0,1.008,2,.663.663,0,0,0,.361-.071L25.228,7.719a1.225,1.225,0,0,0,.936-1.213,1.241,1.241,0,0,0-1.658-1.143" transform="translate(0 -1.01)" fill="#15bb66"/>
    <path id="Path_1259" data-name="Path 1259" d="M0,24.7a3.064,3.064,0,0,1,.648-1.856,2.931,2.931,0,0,1,1.659-1.071L24.074,15.85A3.041,3.041,0,1,1,25.732,21.7L3.965,27.626A3.123,3.123,0,0,1,0,24.7m24.506-7.208L2.738,23.416a1.048,1.048,0,0,0-.648.428,1.49,1.49,0,0,0-.288.786,1.247,1.247,0,0,0,1.585,1.213l21.768-5.924a1.256,1.256,0,1,0-.649-2.426" transform="translate(0 -4.503)" fill="#15bb66"/>
    <path id="Path_1260" data-name="Path 1260" d="M0,36.6a3.067,3.067,0,0,1,2.234-2.927L24,27.751A3.041,3.041,0,1,1,25.659,33.6L3.892,39.527A3.125,3.125,0,0,1,0,36.6m24.506-7.209L2.738,35.316a1.051,1.051,0,0,0-.648.428,1.227,1.227,0,0,0,1.008,2c.288,0-1.081.286,22.129-6a1.225,1.225,0,0,0,.936-1.213,1.309,1.309,0,0,0-1.658-1.143" transform="translate(0 -7.91)" fill="#15bb66"/>
    <path id="Path_1261" data-name="Path 1261" d="M33.469,45.08a3.14,3.14,0,1,1,3.172-3.14,3.183,3.183,0,0,1-3.172,3.14m0-4.5a1.356,1.356,0,1,0,1.37,1.356,1.362,1.362,0,0,0-1.37-1.356" transform="translate(-8.675 -11.109)" fill="#15bb66"/>
    <path id="Path_1262" data-name="Path 1262" d="M3.171,6.28A3.183,3.183,0,0,1,0,3.14a3.171,3.171,0,0,1,6.342,0A3.183,3.183,0,0,1,3.171,6.28m0-4.425A1.362,1.362,0,0,0,1.8,3.212a1.319,1.319,0,0,0,1.37,1.356,1.319,1.319,0,0,0,1.37-1.356,1.362,1.362,0,0,0-1.37-1.356" fill="#15bb66"/>
  </g>
</svg>
