<svg id="achain-act-logo" xmlns="http://www.w3.org/2000/svg" width="40" height="40" viewBox="0 0 40 40">
  <circle id="Ellipse_28" data-name="Ellipse 28" cx="20" cy="20" r="20" fill="#767dff"/>
  <path id="Path_1338" data-name="Path 1338" d="M15.717,6.5h5.577a1.088,1.088,0,0,1,.949.555l8.635,15.4a1.088,1.088,0,0,1,0,1.063L28.114,28.45a1.088,1.088,0,0,1-.948.556H9.844a1.088,1.088,0,0,1-.949-.556L6.133,23.521a1.088,1.088,0,0,1,0-1.063l8.635-15.4a1.088,1.088,0,0,1,.949-.555Zm2.788,6.128L12.687,22.99H24.323Z" transform="translate(1.501 1.627)" fill="#fff" fill-rule="evenodd"/>
</svg>
