<svg id="ELEMENTS" xmlns="http://www.w3.org/2000/svg" width="40" height="40" viewBox="0 0 40 40">
  <g id="Group_128" data-name="Group 128">
    <path id="Path_1290" data-name="Path 1290" d="M20,40A20,20,0,1,0,0,20,19.948,19.948,0,0,0,20,40Z" fill="#2775ca"/>
    <path id="Path_1291" data-name="Path 1291" d="M37.558,31.714c0-2.917-1.749-3.916-5.253-4.335-2.5-.331-3-1-3-2.167s.837-1.917,2.5-1.917c1.5,0,2.336.5,2.749,1.749a.626.626,0,0,0,.587.418h1.336a.574.574,0,0,0,.587-.587v-.081a4.163,4.163,0,0,0-3.748-3.417v-2c0-.331-.25-.587-.668-.668H31.4c-.331,0-.587.25-.668.668V21.3c-2.5.331-4.085,2-4.085,4.085,0,2.749,1.668,3.835,5.166,4.248,2.336.418,3.085.918,3.085,2.249s-1.168,2.249-2.749,2.249c-2.167,0-2.917-.918-3.167-2.167a.608.608,0,0,0-.587-.5H26.977a.574.574,0,0,0-.587.587v.081c.331,2.086,1.668,3.585,4.416,4v2c0,.331.25.587.668.668h1.249c.331,0,.587-.25.668-.668v-2c2.5-.418,4.166-2.167,4.166-4.416h0Z" transform="translate(-12.055 -8.547)" fill="#fff"/>
    <path id="Path_1292" data-name="Path 1292" d="M19.923,36.819a12.471,12.471,0,0,1,0-23.417.844.844,0,0,0,.5-.837V11.4a.637.637,0,0,0-.5-.668.5.5,0,0,0-.331.081A15,15,0,0,0,19.586,39.4a.506.506,0,0,0,.75-.331c.081-.081.081-.168.081-.331V37.574a1.1,1.1,0,0,0-.5-.75Zm8.832-26a.506.506,0,0,0-.75.331c-.081.081-.081.168-.081.331v1.168a1.118,1.118,0,0,0,.5.837,12.471,12.471,0,0,1,0,23.417.844.844,0,0,0-.5.837V38.9a.637.637,0,0,0,.5.668.5.5,0,0,0,.331-.081,15.058,15.058,0,0,0,0-28.664h0Z" transform="translate(-4.17 -4.902)" fill="#fff"/>
  </g>
</svg>
