<svg width="110" height="18" viewBox="0 0 110 18" fill="none" xmlns="http://www.w3.org/2000/svg">
<path d="M0 0.0192871H8.05531C9.57109 0.0192871 10.7558 0.354325 11.5753 0.939507C12.4993 1.61886 13.0207 2.61175 13.0207 3.80272C13.0207 5.1809 12.3805 6.06037 11.0781 6.58352V6.64645C12.7831 7.14833 13.7555 8.48576 13.7555 10.1164C13.7555 11.6634 13.0922 12.8759 11.979 13.6075C11.055 14.1929 9.82301 14.4861 8.2115 14.4861H0.01429V0.0192871H0ZM7.26 5.68481C8.13669 5.68481 8.75269 5.26737 8.75269 4.4094C8.75269 3.594 8.08941 3.17678 7.23691 3.17678H4.46491V5.66421H7.2589L7.26 5.68481ZM7.66259 11.2869C8.6339 11.2869 9.36759 10.7647 9.36759 9.80191C9.36759 8.79839 8.5976 8.31688 7.6384 8.31688H4.46381V11.2849L7.66259 11.2869ZM14.5574 0.0281161H18.7748V14.5151H14.5574V0.0281161Z" fill="black"/>
<path d="M19.6163 9.34365C19.6163 6.08247 22.0087 3.8667 25.7047 3.8667C29.4007 3.8667 31.7459 6.08247 31.7459 9.34365C31.7459 12.6243 29.4007 14.8208 25.7047 14.8208C22.0087 14.8208 19.6163 12.6272 19.6163 9.34365ZM27.5771 9.34365C27.5771 7.54622 26.9136 6.396 25.6575 6.396C24.4014 6.396 23.7874 7.52494 23.7874 9.34365C23.7874 11.1626 24.4034 12.2915 25.6575 12.2915C26.9136 12.3128 27.5771 11.183 27.5771 9.34365Z" fill="black"/>
<path d="M32.2673 9.34365C32.2673 6.08247 34.66 3.8667 38.356 3.8667C42.052 3.8667 44.3972 6.08247 44.3972 9.34365C44.3972 12.6243 42.052 14.8208 38.356 14.8208C34.66 14.8208 32.2673 12.6272 32.2673 9.34365ZM40.2281 9.34365C40.2281 7.54622 39.5649 6.396 38.3085 6.396C37.0524 6.396 36.4387 7.52494 36.4387 9.34365C36.4387 11.1626 37.0547 12.2915 38.3085 12.2915C39.5649 12.3128 40.2281 11.183 40.2281 9.34365Z" fill="black"/>
<path d="M45.2507 4.15989H49.1699V5.70694H49.2415C50.0115 4.49379 51.0895 3.84636 52.7615 3.84636C54.2301 3.84636 55.3443 4.4947 55.9131 5.62251H55.9844C56.9327 4.26379 58.1878 3.84636 59.6091 3.84636C62.3338 3.84636 63.4942 5.62251 63.4942 7.98497V14.5073H59.3715V8.65459C59.3715 7.58904 58.9918 6.90764 57.9502 6.90764C56.9316 6.90764 56.4103 7.74433 56.4103 8.87304V14.5171H52.3346V8.66433C52.3346 7.59855 51.9552 6.91738 50.9135 6.91738C49.895 6.91738 49.3737 7.75384 49.3737 8.88278V14.5268H45.2507V4.18026V4.15989ZM68.7059 13.1475H68.6587V14.4849H64.7493V0H68.8601V5.22567H68.9315C69.7016 4.32673 70.7553 3.84726 72.2721 3.84726C75.2092 3.84726 76.9143 6.18845 76.9143 9.30203C76.9143 12.8136 75.0663 14.8421 72.0104 14.8421C70.7069 14.8421 69.4035 14.2986 68.6939 13.1484L68.7059 13.1475ZM72.7101 9.28075C72.7101 7.60828 72.0225 6.54363 70.7674 6.54363C69.5123 6.54363 68.7059 7.60941 68.7059 9.28075C68.7059 10.9306 69.5113 12.0176 70.7674 12.0176C72.0235 12.0176 72.7101 10.9521 72.7101 9.28075ZM77.3761 9.30203C77.3761 6.0825 79.7929 3.82508 83.2985 3.82508C85.0521 3.82508 86.3785 4.30545 87.4215 5.16251C88.7723 6.31273 89.3882 8.13053 89.341 10.2426H81.476C81.6409 11.5382 82.3526 12.1865 83.5846 12.1865C84.2953 12.1865 84.9354 11.8936 85.1961 11.2043H89.1527C88.4654 13.5667 86.3809 14.7568 83.4327 14.7568C79.8083 14.7781 77.3674 12.6243 77.3674 9.30203H77.3761ZM81.4749 8.23625H85.2181C85.1466 6.98235 84.3656 6.33401 83.3942 6.33401C82.2569 6.33401 81.6409 7.04438 81.4749 8.23625ZM94.0081 5.93604H94.0797C94.9323 4.4938 96.0465 3.95027 97.4435 3.95027C97.7757 3.95027 97.9881 3.99192 98.1069 4.05508V7.23272H98.0123C95.5955 6.85626 94.1623 7.85978 94.1623 10.2007V14.5073H90.0394V4.18026H93.9489V5.92721L94.0081 5.93604Z" fill="black"/>
<path d="M98.582 14.5074H102.539C102.682 14.9461 103.202 15.3857 104.198 15.3857C105.524 15.3857 105.974 14.6538 105.974 13.5883V12.836H105.879C105.216 13.5154 104.364 14.0066 103.06 14.0066C100.525 14.0066 98.3455 12.3566 98.3455 9.13613C98.3455 6.16811 100.146 3.86768 102.871 3.86768C104.433 3.86768 105.406 4.43271 106.022 5.30992H106.094V4.18121H110V13.1281C110 14.7781 109.337 16.0757 108.365 16.8279C107.347 17.6434 105.879 17.9569 104.218 17.9569C101.138 17.9569 98.9604 16.8279 98.5797 14.5074H98.582ZM106.139 8.94575C106.139 7.6502 105.451 6.61634 104.244 6.61634C103.083 6.61634 102.348 7.53656 102.348 8.94575C102.348 10.3242 103.083 11.3286 104.244 11.3286C105.451 11.3286 106.139 10.3047 106.139 8.94575Z" fill="black"/>
</svg>
