<svg xmlns="http://www.w3.org/2000/svg" width="40" height="40" viewBox="0 0 40 40">
  <g id="ELEMENTS" transform="translate(0)">
    <g id="Group_130" data-name="Group 130" transform="translate(0 0)">
      <circle id="Ellipse_13" data-name="Ellipse 13" cx="20" cy="20" r="20" fill="#e84142"/>
      <path id="Path_1295" data-name="Path 1295" d="M21.515,34.237H17.631a3.134,3.134,0,0,1-1.467-.158.975.975,0,0,1-.445-.771c-.016-.288.185-.641.592-1.353l9.582-16.893c.407-.717.614-1.076.875-1.211a1,1,0,0,1,.9,0c.261.13.467.489.875,1.211L30.51,18.5l.011.016a6.538,6.538,0,0,1,.76,1.57,2.892,2.892,0,0,1,0,1.363,6.527,6.527,0,0,1-.766,1.586l-5.035,8.9-.011.022a6.561,6.561,0,0,1-.978,1.467,2.916,2.916,0,0,1-1.2.7,6.936,6.936,0,0,1-1.776.114Z" transform="translate(-7.178 -6.281)" fill="#fff" fill-rule="evenodd"/>
      <path id="Path_1296" data-name="Path 1296" d="M42.808,44.451H48.37a3.065,3.065,0,0,0,1.477-.163.971.971,0,0,0,.445-.777c.016-.282-.185-.619-.57-1.287-.011-.022-.027-.043-.038-.071L46.9,37.39l-.033-.054c-.391-.663-.587-.994-.842-1.124a.989.989,0,0,0-.891,0c-.255.13-.462.483-.869,1.184l-2.776,4.764-.011.016c-.407.7-.608,1.054-.6,1.342a1,1,0,0,0,.445.777,3.122,3.122,0,0,0,1.472.158Z" transform="translate(-18.672 -16.496)" fill="#fff" fill-rule="evenodd"/>
    </g>
  </g>
</svg>
