<svg id="ELEMENTS" xmlns="http://www.w3.org/2000/svg" width="40" height="40" viewBox="0 0 40 40">
  <g id="Group_132" data-name="Group 132" transform="translate(0 0)">
    <circle id="Ellipse_14" data-name="Ellipse 14" cx="20" cy="20" r="20" fill="#3cc8c8"/>
    <path id="Path_1300" data-name="Path 1300" d="M23.33,10.409a.872.872,0,1,1-.266,1.423.888.888,0,0,1,.261-1.423m-7.306.788a.684.684,0,1,1-.081,1.271.689.689,0,0,1,.081-1.271m14.959,1.287a.684.684,0,0,1-.125-1.3c.483-.234.923.206.994.663a.754.754,0,0,1-.869.636M17.68,14.3a1.058,1.058,0,1,1-.147,1.749,1.057,1.057,0,0,1,.147-1.744m10.527.462a1.068,1.068,0,0,1,1.907-.043,1.117,1.117,0,0,1-.7,1.548,1.1,1.1,0,0,1-1.206-1.5m-5.769,1.461a1.318,1.318,0,0,1,1.26-1.238,1.4,1.4,0,0,1,1.081.7,1.244,1.244,0,0,1-.581,1.695,1.684,1.684,0,0,1-.929.081,1.345,1.345,0,0,1-.831-1.244m-10.864.994a.873.873,0,1,1-.136,1.461.887.887,0,0,1,.141-1.461m23.324,0a11.5,11.5,0,1,0,0-.005M25.5,18.442a2.106,2.106,0,1,1-1.3,2.732,2.119,2.119,0,0,1,1.3-2.732m-5.177.1a2.1,2.1,0,1,1-.983,2.846,2.122,2.122,0,0,1,.983-2.846m-5.182,1.771a1.324,1.324,0,0,1,1.266-1.081,1.4,1.4,0,0,1,1.233,1.233,1.315,1.315,0,0,1-1.228,1.276,1.233,1.233,0,0,1-1.271-1.429m15.307-.945a1.242,1.242,0,1,1-.092,2.151,1.249,1.249,0,0,1,.092-2.151M18.218,22.7a2.105,2.105,0,1,1-1.358,2.939A2.122,2.122,0,0,1,18.218,22.7m9.815,0a1.765,1.765,0,1,0,.005,0M12.4,23.744a1.093,1.093,0,1,1-.005-.005M33.6,24.863A1.2,1.2,0,0,1,34.72,23.6a1.122,1.122,0,0,1,1.016,1.1,1.059,1.059,0,0,1-1.537.934,1.426,1.426,0,0,1-.6-.777M8.539,24.119a.686.686,0,1,1-.277,1.054.7.7,0,0,1,.277-1.048h0Zm29.685-.011a.681.681,0,0,1,.994.32.666.666,0,0,1-.663.929c-.668.06-.885-.956-.331-1.249M20.771,26.949a2.107,2.107,0,1,1,.081,4.123,2.1,2.1,0,0,1-.076-4.117m4.9,0a2.106,2.106,0,1,1-1.543,1.554,2.116,2.116,0,0,1,1.543-1.554m-9.462.788a1.17,1.17,0,1,1-.005,0M30.6,27.78a10.605,10.605,0,1,0,0,.005m4.02,4.036A.865.865,0,0,1,35.5,30.61a1.073,1.073,0,0,1,.733.451c.043.337.109.739-.168.994a.866.866,0,0,1-1.439-.228M11.57,30.773a.874.874,0,1,1-.038,1.488.879.879,0,0,1,.038-1.488m11.608,1.271a1.238,1.238,0,1,1-.228,2.2,1.252,1.252,0,0,1,.234-2.2M17.805,33.3a1.055,1.055,0,0,1,1.477.983,1.041,1.041,0,0,1-1.162,1.027,1.039,1.039,0,0,1-.315-2.01m10.891.011a1.058,1.058,0,1,1-.125,1.771,1.067,1.067,0,0,1,.125-1.771m1.9,4.682a.747.747,0,0,1,.538-1.1c.391.081.8.375.722.826a.694.694,0,0,1-1.26.277m-15.035-.4c.119-.358.407-.717.831-.625a.689.689,0,0,1,.261,1.26.738.738,0,0,1-1.092-.636m7.251.413a.862.862,0,0,1,1.26-.505c.3.13.386.462.462.75-.043.147-.076.3-.114.445a.98.98,0,0,1-.733.435.862.862,0,0,1-.875-1.119" transform="translate(-3.71 -4.716)" fill="#fff"/>
  </g>
</svg>
