<svg id="ELEMENTS" xmlns="http://www.w3.org/2000/svg" width="40" height="40" viewBox="0 0 40 40">
  <g id="Group_133" data-name="Group 133" transform="translate(0 0)">
    <circle id="Ellipse_15" data-name="Ellipse 15" cx="20" cy="20" r="20" fill="#f30504"/>
    <g id="Group_938" data-name="Group 938" transform="translate(6.55 6.663)">
      <path id="Path_8575" data-name="Path 8575" d="M46.949,38.328a1.627,1.627,0,0,1-.456.467,7.792,7.792,0,0,1-2.988,1.124,3.726,3.726,0,0,1-1.543.043c-.13-.065-.152-.12-.1-.288a2.255,2.255,0,0,1,.918-1.1c.255-.185,1.282-.809,1.76-1.07a6.114,6.114,0,0,1,1.858-.75,1.068,1.068,0,0,1,.353,0c.087.033.179.282.217.581a7.413,7.413,0,0,1-.016.989Z" transform="translate(-25.661 -23.448)"/>
      <path id="Path_8576" data-name="Path 8576" d="M26.5,39.916a.509.509,0,0,1-.331.141,5.48,5.48,0,0,1-.923-.022,9.588,9.588,0,0,1-2.825-.815,3.541,3.541,0,0,1-.972-.652l-.13-.136-.016-.179a5.521,5.521,0,0,1,.016-.972,1.209,1.209,0,0,1,.147-.413q.038-.049.206-.049a2.091,2.091,0,0,1,.663.12,12.833,12.833,0,0,1,2.482,1.238A4.331,4.331,0,0,1,26.253,39.3a.936.936,0,0,1,.239.614Z" transform="translate(-16.274 -23.483)"/>
      <path id="Path_8577" data-name="Path 8577" d="M37.355,50.85s-.054.239-.125.505-.125.483-.125.494a.712.712,0,0,1-.152,0H36.8l-.206.489c-.114.266-.217.516-.228.554l-.027.065-.1-.158-.1-.158v-1.3l-.038.011c-.081.016-.646.092-.9.119a12.748,12.748,0,0,1-3.085-.065c-.163-.022-.3-.043-.31-.038s0,.3.011.674l.016.668-.081.12c-.043.065-.087.119-.087.125-.016.016-.06-.06-.168-.277a3.023,3.023,0,0,1-.261-.712l-.033-.136-.147.011-.147.016-.038-.174c-.016-.092-.043-.239-.054-.32l-.016-.152-.119-.109c-.071-.06-.141-.119-.158-.13a.111.111,0,0,1-.033-.081v-.054h.587l.587.011.016.06.016.06.2.011c.114,0,.467.016.788.022l.587.016.152-.234.158-.234h.2v-.489l-.011-.489-.261-.114a2.513,2.513,0,0,1-1.5-1.293,1.791,1.791,0,0,1-.049-.608,2.3,2.3,0,0,1,.027-.608.682.682,0,0,1,.483-.478,12.166,12.166,0,0,1,1.4-.022h1.3l.147.076a.84.84,0,0,1,.353.277.77.77,0,0,1,.147.554,4.067,4.067,0,0,1-.071.9,2,2,0,0,1-.272.538,2.507,2.507,0,0,1-1.054.739l-.114.043v.494l.011.494.1.011.1.011.141.212.136.212h.63c.348,0,.652,0,.679.011.049.011.054,0,.1-.076l.054-.087h.538a2.3,2.3,0,0,1,.527,0Z" transform="translate(-20.483 -27.882)"/>
      <path id="Path_8578" data-name="Path 8578" d="M36.613,56.692c-.087.054-.152.076-.163.065a1.011,1.011,0,0,1-.152-.114l-.125-.1-.13.141c-.288.31-.293.326-.38.331-.13.016-.158-.011-.32-.25-.087-.119-.152-.223-.152-.223s-.06-.011-.13-.016l-.13-.016-.06.125-.06.125-.109-.033a1.986,1.986,0,0,1-.25-.1l-.141-.071V56.29h1.249l1.249.011v.125c.011.152.016.147-.19.261Z" transform="translate(-22.223 -32.378)"/>
      <path id="Path_8579" data-name="Path 8579" d="M38.192,44.6a.551.551,0,0,0-.011-.1,9.993,9.993,0,0,0-7.328,2.271s-.961-4.416-5.47-4.416S19.2,46.766,19.2,46.766a8.1,8.1,0,0,0-7.127-2.341v.087a4.2,4.2,0,0,0,.092,1.434A9.224,9.224,0,0,0,15.3,50.2a18.121,18.121,0,0,0,9.419,4.275c2.982.2,7.382-1.543,10.31-4.085a15.409,15.409,0,0,0,1.3-1.3,6.866,6.866,0,0,0,.69-.918c-.011,0,0-.011.016-.016s.027-.022.016-.033a.024.024,0,0,1,.016-.022c.016,0,.022-.016.016-.022s0-.016.016-.022.016-.016.016-.027,0-.016.011-.016.016-.016.016-.022.011-.022.016-.022a.024.024,0,0,0,.016-.016.7.7,0,0,1,.06-.109c.071-.109.353-.608.391-.7a6.644,6.644,0,0,0,.516-1.684,5.46,5.46,0,0,0,.033-.847ZM26.453,50.329c-.087.054-.152.076-.163.065a1.012,1.012,0,0,1-.152-.114l-.125-.1-.13.141c-.288.31-.293.326-.38.331-.13.016-.158-.011-.32-.25-.087-.12-.152-.223-.152-.223s-.06-.011-.13-.016l-.13-.016-.06.125-.06.125-.109-.033a1.985,1.985,0,0,1-.25-.1l-.141-.071v-.266H25.4l1.249.011v.125c.011.152.016.147-.19.261Zm2.347-.847c-.071.266-.125.483-.125.494a.711.711,0,0,1-.152,0h-.152l-.2.494c-.114.266-.217.516-.228.554l-.027.065-.1-.158-.1-.158v-1.3l-.038.011c-.081.016-.646.092-.9.12a12.748,12.748,0,0,1-3.085-.065c-.163-.022-.3-.043-.31-.038s0,.3.011.674l.016.668-.081.119c-.043.065-.087.12-.087.125-.016.016-.06-.06-.168-.277a3.023,3.023,0,0,1-.261-.712l-.033-.136-.147.011-.147.016-.038-.174c-.016-.092-.043-.239-.054-.32l-.016-.152-.119-.109c-.071-.06-.141-.12-.158-.13a.111.111,0,0,1-.033-.081v-.054h.587l.587.011.016.06.016.06.2.011c.114,0,.467.016.788.022l.587.016.152-.234.158-.234h.2v-.489l-.011-.489-.261-.114a2.513,2.513,0,0,1-1.5-1.293,1.791,1.791,0,0,1-.049-.608,2.3,2.3,0,0,1,.027-.608.682.682,0,0,1,.483-.478,12.166,12.166,0,0,1,1.4-.022h1.3l.147.076a.84.84,0,0,1,.353.277.77.77,0,0,1,.147.554,4.066,4.066,0,0,1-.071.9,2,2,0,0,1-.272.538A2.507,2.507,0,0,1,26,47.668l-.114.043v.494l.011.494.1.011.1.011.141.212.136.212h.63c.348,0,.652,0,.679.011.049.011.054,0,.1-.076l.054-.087h.538a2.214,2.214,0,0,1,.538.016,3,3,0,0,0-.147.489Z" transform="translate(-12.058 -26.009)" fill="#fff"/>
      <path id="Path_8582" data-name="Path 8582" d="M38.164,30.373c-.011-.212-.027-.505-.043-.652A13.719,13.719,0,0,0,36.339,24a1.4,1.4,0,0,1-.1-.2.072.072,0,0,1-.016-.038h0c.147-.435.744-2.265,1.217-4.351.641-2.835,1.054-6.149-.2-7.148,0,0-2.162-.158-5.052,2.678a19.142,19.142,0,0,0-2.14,2.542l-.2-.065a14.747,14.747,0,0,0-3.585-.7c-.364-.027-1.733-.027-2.178,0a12.615,12.615,0,0,0-3.552.7c-.049.016-.087.033-.13.049a19.13,19.13,0,0,0-2.211-2.52c-3.009-2.852-5.253-2.683-5.253-2.683-1.325,1.027-.875,4.492-.19,7.425.451,1.939,1,3.645,1.211,4.259a.943.943,0,0,1-.054.1,17.059,17.059,0,0,0-1.825,6.627,8.108,8.108,0,0,1,7.132,2.341s1.673-4.416,6.181-4.416,5.47,4.416,5.47,4.416a10.024,10.024,0,0,1,7.328-2.271c0-.092-.016-.234-.022-.375Zm-23.324-8.2s-1.754-4.389-1.3-6.9h0A2.468,2.468,0,0,1,13.97,14.2s1.993.2,5.2,3.764a9.143,9.143,0,0,0-1.429.923h-.011a11.233,11.233,0,0,0-2.9,3.275h0ZM22.292,28.7a.509.509,0,0,1-.331.141,5.479,5.479,0,0,1-.923-.022A9.589,9.589,0,0,1,18.213,28a3.541,3.541,0,0,1-.972-.652l-.13-.136-.016-.179a5.521,5.521,0,0,1,.016-.972,1.209,1.209,0,0,1,.147-.413q.038-.049.206-.049a2.091,2.091,0,0,1,.663.12,12.833,12.833,0,0,1,2.482,1.238,4.331,4.331,0,0,1,1.439,1.119.936.936,0,0,1,.239.614Zm11.065-1.554a1.627,1.627,0,0,1-.456.467,7.792,7.792,0,0,1-2.988,1.124,3.726,3.726,0,0,1-1.543.043c-.13-.065-.152-.12-.1-.288a2.255,2.255,0,0,1,.918-1.1c.255-.185,1.282-.809,1.76-1.07a6.114,6.114,0,0,1,1.858-.75,1.068,1.068,0,0,1,.353,0c.087.033.179.282.217.581a7.413,7.413,0,0,1-.016.989ZM32.58,18.9h-.011a8.4,8.4,0,0,0-1.38-.929c3.1-3.569,5.024-3.764,5.024-3.764a2.556,2.556,0,0,1,.424,1.076h0c.435,2.51-1.26,6.9-1.26,6.9a11.2,11.2,0,0,0-2.8-3.281h0Z" transform="translate(-12.068 -12.267)" fill="#ffa409"/>
      <path id="Path_8583" data-name="Path 8583" d="M45.122,21.87a.322.322,0,0,0-.022.033" transform="translate(-27.152 -16.654)" fill="none"/>
      <path id="Path_8584" data-name="Path 8584" d="M56.483,33.43l-.033.1" transform="translate(-32.337 -21.935)" fill="none"/>
      <g id="Group_934" data-name="Group 934" transform="translate(19.116 1.935)">
        <g id="Group_933" data-name="Group 933">
          <g id="Group_932" data-name="Group 932">
            <path id="Path_8585" data-name="Path 8585" d="M52.7,16.9c-.364-.049-2.1-.054-4.063,3.623H48.63a8.4,8.4,0,0,0-1.38-.929c3.1-3.569,5.024-3.764,5.024-3.764a2.491,2.491,0,0,1,.429,1.076Z" transform="translate(-47.25 -15.83)" fill="#ff9300"/>
          </g>
          <path id="Path_8586" data-name="Path 8586" d="M52.613,24.7a11.136,11.136,0,0,0-2.8-3.281c1.961-3.677,3.688-3.666,4.063-3.623h0C54.308,20.308,52.613,24.7,52.613,24.7Z" transform="translate(-48.419 -16.723)" fill="#ff8300"/>
          <path id="Path_8587" data-name="Path 8587" d="M57.361,17.816,57.29,17.8Z" transform="translate(-51.836 -16.73)" fill="#ff8300"/>
        </g>
      </g>
      <path id="Path_8588" data-name="Path 8588" d="M27.517,22.046l-.147-.2" transform="translate(-19.053 -16.645)" fill="none"/>
      <path id="Path_8589" data-name="Path 8589" d="M15.52,33.77c.054.158.087.244.087.244" transform="translate(-13.64 -22.09)" fill="none"/>
      <g id="Group_937" data-name="Group 937" transform="translate(1.386 1.924)">
        <g id="Group_936" data-name="Group 936">
          <g id="Group_935" data-name="Group 935" transform="translate(0.071)">
            <path id="Path_8590" data-name="Path 8590" d="M20.389,19.585a9.143,9.143,0,0,0-1.429.923H18.95c-2.032-3.683-3.824-3.666-4.21-3.623a2.468,2.468,0,0,1,.435-1.076s1.993.2,5.209,3.764Z" transform="translate(-14.74 -15.81)" fill="#ff9300"/>
          </g>
          <path id="Path_8591" data-name="Path 8591" d="M18.9,21.415A11.272,11.272,0,0,0,16,24.7s-1.754-4.389-1.3-6.9h0c.38-.049,2.173-.054,4.21,3.623Z" transform="translate(-14.616 -16.711)" fill="#ff8300"/>
          <path id="Path_8592" data-name="Path 8592" d="M14.686,17.8l-.076.016Z" transform="translate(-14.61 -16.719)" fill="#ff8300"/>
        </g>
      </g>
      <path id="Path_8593" data-name="Path 8593" d="M45.1,33.02s-1.5.092-1.314-1.081a1.549,1.549,0,0,1,1.689-1.266c.331.049,1.646.516,1.407,1.5s-.565.8-.75.847a7.133,7.133,0,0,1-1.032,0Z" transform="translate(-26.544 -20.672)" fill="#fff"/>
      <path id="Path_8594" data-name="Path 8594" d="M24.7,33.02s-1.5.092-1.315-1.081a1.549,1.549,0,0,1,1.689-1.266c.331.049,1.646.516,1.407,1.5s-.565.8-.75.847a7.133,7.133,0,0,1-1.032,0Z" transform="translate(-17.225 -20.672)" fill="#fff"/>
    </g>
  </g>
</svg>
