<svg id="biswap-bsw-logo" xmlns="http://www.w3.org/2000/svg" xmlns:xlink="http://www.w3.org/1999/xlink" width="40.086" height="40.012" viewBox="0 0 40.086 40.012">
  <defs>
    <linearGradient id="linear-gradient" x1="0.594" y1="0.675" x2="0.447" y2="-0.125" gradientUnits="objectBoundingBox">
      <stop offset="0" stop-color="#ff496a"/>
      <stop offset="1" stop-color="#e42648"/>
    </linearGradient>
    <linearGradient id="linear-gradient-2" x1="0.323" y1="0.323" x2="0.616" y2="1.175" gradientUnits="objectBoundingBox">
      <stop offset="0.002" stop-color="#1158f1"/>
      <stop offset="1" stop-color="#119bed"/>
    </linearGradient>
  </defs>
  <path id="Path_1339" data-name="Path 1339" d="M20.006,40.012A20.006,20.006,0,1,0,0,20.006,19.975,19.975,0,0,0,20.006,40.012Z" fill="#fff"/>
  <path id="Path_1340" data-name="Path 1340" d="M38.341,10.174c-1.4.3-2.731.664-3.765.886a6.785,6.785,0,0,0-5.315,5.906c-.443,3.1.591,4.429.148,8.047-.812,6.349-6.866,8.49-9.671,9.818-1.624.738-5.611,2.51-8.637,3.839A20.012,20.012,0,0,0,38.636,10.1.558.558,0,0,1,38.341,10.174Z" transform="translate(-2.906 -2.644)" fill="url(#linear-gradient)"/>
  <path id="Path_1341" data-name="Path 1341" d="M17.717,17.053c1.55-3.322.96-3.322,2.141-6.5C21.335,6.57,25.912,7.751,27.167,7.9c2.067.3,2.658-.443,7.013-1.181.221,0,.443-.074.664-.074A20,20,0,0,0,1.919,11.369C8.563,12.993,15.65,16.536,17.717,17.053ZM13.362,3.47c.591.074,3.4,3.617,3.913,12.624,0,0-3.617-.886-4.429-2.731C12.255,11.812,13.067,9.745,13.362,3.47ZM35.583,7.53ZM0,20.006a23.612,23.612,0,0,1,.517-4.651,27.55,27.55,0,0,1,2.289,2.067c5.241,4.8,13.657,8.637,16.758,5.094h0a6.781,6.781,0,0,1-6.792,2.362L6.349,34.549A19.721,19.721,0,0,1,0,20.006Z" fill="url(#linear-gradient-2)"/>
</svg>
