<svg width="111" height="23" viewBox="0 0 111 23" fill="none" xmlns="http://www.w3.org/2000/svg">
<g clip-path="url(#clip0_19_86)">
<mask id="mask0_19_86" style="mask-type:luminance" maskUnits="userSpaceOnUse" x="0" y="0" width="111" height="23">
<path d="M111 0H0V22.476H111V0Z" fill="white"/>
</mask>
<g mask="url(#mask0_19_86)">
<path d="M6.70339 9.44459L11.0218 5.07991L15.3424 9.44689L17.8551 6.90712L11.0218 0L4.19067 6.90482L6.70339 9.44459Z" fill="#F3BA2F"/>
<path d="M4.92996 11.237L2.41729 8.69727L-0.09552 11.2371L2.41716 13.7768L4.92996 11.237Z" fill="#F3BA2F"/>
<path d="M6.70497 13.0317L11.0233 17.3963L15.3438 13.0295L17.8579 15.5679L17.8567 15.5693L11.0233 22.4763L4.19205 15.5716L4.18854 15.5681L6.70497 13.0317Z" fill="#F3BA2F"/>
<path d="M19.6287 13.779L22.1414 11.2392L19.6288 8.69946L17.116 11.2393L19.6287 13.779Z" fill="#F3BA2F"/>
<path d="M13.5699 11.2373H13.571L11.0212 8.66003L9.13694 10.5647L8.92038 10.7836L8.47371 11.235L8.47021 11.2385L8.47371 11.2423L11.0212 13.8172L13.571 11.2399L13.5723 11.2385L13.5699 11.2373Z" fill="#F3BA2F"/>
<path d="M26.059 5.44543H31.524C32.8804 5.44543 33.9061 5.79726 34.6012 6.50095C35.1391 7.04594 35.408 7.72141 35.408 8.52719V8.56124C35.408 8.90176 35.3664 9.20266 35.2827 9.46357C35.199 9.72493 35.0874 9.96015 34.9477 10.1701C34.8085 10.3803 34.6465 10.5648 34.4625 10.7235C34.2782 10.8825 34.0803 11.0189 33.8683 11.1321C34.5501 11.3934 35.0868 11.7479 35.4781 12.1964C35.8693 12.6449 36.0651 13.2664 36.0651 14.0608V14.0948C36.0651 14.6398 35.9615 15.1164 35.754 15.5252C35.5466 15.9337 35.2495 16.2743 34.8625 16.5468C34.4756 16.8193 34.0104 17.0234 33.4667 17.1598C32.9229 17.296 32.3203 17.364 31.6591 17.364H26.059V5.44543ZM30.9776 10.2639C31.5505 10.2639 32.0054 10.1648 32.3421 9.96598C32.6789 9.76734 32.8474 9.44658 32.8474 9.00402V8.96992C32.8474 8.5728 32.7013 8.26926 32.4094 8.05906C32.1173 7.84903 31.6962 7.74396 31.1461 7.74396H28.5856V10.2639H30.9776ZM31.6684 15.0656C32.2411 15.0656 32.69 14.9609 33.016 14.7507C33.3416 14.5407 33.5046 14.2142 33.5046 13.7715V13.7376C33.5046 13.3403 33.3528 13.0254 33.0497 12.7925C32.7464 12.5601 32.258 12.4436 31.5841 12.4436H28.5856V15.0658L31.6684 15.0656Z" fill="#F3BA2F"/>
<path d="M39.3183 5.44543H41.9126V17.3643H39.3183V5.44543Z" fill="#F3BA2F"/>
<path d="M45.8417 5.44543H48.2334L53.7589 12.7841V5.44543H56.3192V17.3643H54.1128L48.402 9.78742V17.3643H45.8417V5.44543Z" fill="#F3BA2F"/>
<path d="M64.1746 5.36218H66.5667L71.6205 17.3661H68.9082L67.8299 14.693H62.8437L61.7654 17.3661H59.1202L64.1746 5.36218ZM66.9036 12.3771L65.3368 8.51212L63.7706 12.3771H66.9036Z" fill="#F3BA2F"/>
<path d="M74.4199 5.44543H76.812L82.337 12.7841V5.44543H84.8978V17.3643H82.6911L76.9801 9.78742V17.3643H74.4199V5.44543Z" fill="#F3BA2F"/>
<path d="M94.234 17.5689C93.3687 17.5689 92.5662 17.4098 91.8247 17.0923C91.0838 16.7747 90.4439 16.3403 89.9044 15.7896C89.3655 15.2391 88.9443 14.5893 88.6413 13.8401C88.3382 13.0908 88.1867 12.2905 88.1867 11.4392V11.4053C88.1867 10.5539 88.3382 9.75662 88.6413 9.01299C88.9443 8.26953 89.3655 7.61678 89.9044 7.05496C90.4433 6.49309 91.0894 6.0502 91.8414 5.72674C92.594 5.4033 93.4254 5.24158 94.335 5.24158C94.885 5.24158 95.3873 5.2872 95.8424 5.37774C96.2969 5.4688 96.7098 5.59342 97.0806 5.75232C97.4513 5.91135 97.7938 6.10433 98.1084 6.33119C98.422 6.55844 98.7145 6.80802 98.9842 7.08048L97.3337 9.00446C96.8725 8.58463 96.404 8.25517 95.9267 8.01692C95.4494 7.77867 94.9133 7.65941 94.3178 7.65941C93.8238 7.65941 93.366 7.75595 92.9453 7.94893C92.524 8.14191 92.1616 8.40854 91.8586 8.74899C91.5556 9.08951 91.3197 9.48415 91.151 9.93237C90.9828 10.381 90.8984 10.8604 90.8984 11.3712V11.405C90.8984 11.9158 90.9828 12.3985 91.151 12.8522C91.3197 13.3065 91.5522 13.7036 91.8503 14.0441C92.1477 14.3846 92.5068 14.6544 92.9281 14.853C93.3493 15.0519 93.8127 15.1509 94.3178 15.1509C94.9921 15.1509 95.5615 15.0261 96.0277 14.7763C96.4939 14.5269 96.9574 14.1863 97.4175 13.7547L99.0686 15.4405C98.765 15.7698 98.4503 16.065 98.1251 16.3258C97.7993 16.5871 97.443 16.8111 97.055 16.9985C96.6677 17.1857 96.2436 17.3278 95.7835 17.4241C95.3229 17.5205 94.8062 17.5689 94.234 17.5689Z" fill="#F3BA2F"/>
<path d="M102.122 5.44543H110.999V7.77823H104.683V10.196H110.242V12.5287H104.683V15.0317H111.084V17.3643H102.122V5.44543Z" fill="#F3BA2F"/>
</g>
</g>
<defs>
<clipPath id="clip0_19_86">
<rect width="111" height="23" fill="white"/>
</clipPath>
</defs>
</svg>
