<svg id="compound-comp-logo" xmlns="http://www.w3.org/2000/svg" width="40.012" height="40.012" viewBox="0 0 40.012 40.012">
  <path id="Path_1325" data-name="Path 1325" d="M20.006,40.012A20.006,20.006,0,1,0,0,20.006,20.006,20.006,0,0,0,20.006,40.012Z" fill="#070a0e"/>
  <path id="Path_1326" data-name="Path 1326" d="M530.464,417.967a2.014,2.014,0,0,1-.964-1.716v-3.909a.841.841,0,0,1,1.264-.724l8.821,5.144a1.678,1.678,0,0,1,.834,1.45v4.049a1,1,0,0,1-1,1.008,1.022,1.022,0,0,1-.528-.148Zm13.148-7.42a1.684,1.684,0,0,1,.834,1.45v8.218a.668.668,0,0,1-.342.584l-1.931,1.086a.337.337,0,0,1-.078.032v-4.563a1.681,1.681,0,0,0-.818-1.442l-7.746-4.633v-5.152a.841.841,0,0,1,1.264-.724Zm3.861-6.07a1.678,1.678,0,0,1,.836,1.452v12a.68.68,0,0,1-.354.59l-1.831.988v-8.356a1.683,1.683,0,0,0-.814-1.44l-7.918-4.749V400.08a.865.865,0,0,1,.112-.422.842.842,0,0,1,1.148-.3Z" transform="translate(-518.907 -391.253)" fill="#00d395" fill-rule="evenodd"/>
</svg>
