<svg id="ELEMENTS" xmlns="http://www.w3.org/2000/svg" width="40" height="40" viewBox="0 0 40 40">
  <g id="Group_126" data-name="Group 126" transform="translate(0 0)">
    <circle id="Ellipse_11" data-name="Ellipse 11" cx="20" cy="20" r="20" fill="#172852"/>
    <g id="Group_125" data-name="Group 125" transform="translate(8.368 8.262)">
      <path id="Path_1285" data-name="Path 1285" d="M28.609,15.889a11.624,11.624,0,0,1,7.366-.158,11.808,11.808,0,0,1,7.1,6.252,7.186,7.186,0,0,1,.777,2.645,27.063,27.063,0,0,0-5.578-2.265c-3.069-1.108-6.279-1.874-9.185-3.395-.674-.4-1.537-.82-1.722-1.662-.076-.728.7-1.135,1.244-1.418" transform="translate(-20.867 -15.21)" fill="#ffd83d"/>
      <path id="Path_1286" data-name="Path 1286" d="M16.077,25.443a11.422,11.422,0,0,1,3.3-4.813,14.846,14.846,0,0,0,3.949,8.506,14.21,14.21,0,0,0,10.31,4.4,20.548,20.548,0,0,0,4.525-.592,11.664,11.664,0,1,1-22.086-7.5Z" transform="translate(-15.407 -17.686)" fill="#ffd83d"/>
    </g>
    <path id="Path_1287" data-name="Path 1287" d="M47.44,28.37a27.186,27.186,0,0,1,5.578,2.265l.119.06a11.964,11.964,0,0,1,.065,3.683,10.873,10.873,0,0,1-2.336-1.6A9.52,9.52,0,0,1,47.44,28.37" transform="translate(-21.672 -12.96)" fill="#ff6f03"/>
  </g>
</svg>
